<svg xmlns="http://www.w3.org/2000/svg" viewBox="0 0 338 338"><defs><style>.cls-1{fill:none;}.cls-2{fill:#606060;}.cls-3{fill:#353535;}.cls-4{fill:#a00;}.cls-5{fill:#0b0b0b;}</style></defs><g id="Layer_2" data-name="Layer 2"><g id="Layer_1-2" data-name="Layer 1"><path class="cls-1" d="M.1.1Q167,.1,333.91,0c3.42,0,4.09.67,4.09,4.09q-.18,164.91,0,329.82c0,3.42-.67,4.09-4.09,4.09Q169,337.82,4.09,338C.67,338,0,337.33,0,333.91Q.18,167,.1.1Zm260,19.77-1-.93-1.64-1.59-1.2-.15.52,1.05,1.59,1.53.92.86,1,1,.91,1c.53.53,1.05,1.07,1.57,1.6l1,.53-.11-1.22-1.56-1.66-1-1Zm-19.69,4.64c-.43-.06-1.11-.33-1.26-.16-.44.51.15.74.52,1l1.08.91,1,1c.25.4.6.84,1,.38.16-.18-.15-.79-.24-1.21l-1-1Zm-64.9,269c.63.2,1.19.2,1.55-.48,1.33-1.17,2.67-2.33,4-3.51,1.73-1.54.23-2.44-.62-3.62-1.16-1.62-1.62-.78-2.92.05-3.13,2,.48,4.57-1,6.5l-1,1.14.19.19ZM68,80.08l.08-.11c-1,.35-1.28,1.21-1.59,2.07l-2.15,7.27c-2.09,3.5-3,7.14-1.51,11.46,1.9-1,1.15-3,2.24-3.91,0,3.8-.48,7.6.47,11.38.54,2.15,1,4.43,1.4,6.48.58,2.73.71,5,3.81,4.07,3.85-1.16,5.49,1,7.4,3.32l.17,1.58,1-.52c3.67,1.25,7.91.34,11.28,3.39-3.89-5.52-2.47-13.2-9.18-16.8,2.35-1.44,4-.68,5.63-.76l0,0c-1.24-4-4.39-4.54-7.9-4.33-3.05.18-7.3-3.45-5.89-5.15,1.86-2.22,1.3-3.14-.68-3.93-4.84-1.93-3.89-5.68-1.92-8.42A26.19,26.19,0,0,0,75.07,78l.31.81.39-.34-.76-.4c.75-1.35,2.95-1.64,2.77-3.74-4.42-.68-7.73.63-9.52,4.87A2.52,2.52,0,0,0,68,80.08Zm26.6-1.48,2,1c.65.5,1.87,1,1.86,1.51-.08,4.17,4.83,3.51,6.1,6.42.28.66,1.93.58,2.73-.09a2.1,2.1,0,0,0-.09-3.13c-3-3.2-2.9-7.5-4.36-11.23,2.92,1.55,3.26,5.43,6.25,6.92l.23.77L110,80c1.51,1.82,3,3.65,4.64,5.61,1.47-2.33-.73-4.35.39-6.95,3.06,6.47,5.23,12.79,9.4,19.16.47-4.89-2.31-8.29-1.65-13.43,1.42,4.16,2.42,7.13,3.45,10.09s1.56,6.26,3.54,8.79c1.66-.71.5-2.61,2.42-3,1.94,4.33,1.12,9.52,3.85,13.62l.08.25L136,114c-.1-4.13-.68-8.29.65-12.38,1.34,4.65,2.27,9.34,3.33,14,.46,2,0,5.6,2.27,5.37,2.88-.3.71-3.49.94-5.39.08-.62.08-1.24.14-2.36,1.87,2.52,1.68,5.1,2.33,7.42.43,1.55-.13,3.6,1.46,4.56,1.78,1.07,1.78-2.52,4.08-1.9-.72,2.63-1.06,5.93.74,7.21,4.5,3.22,3.62,8.59,6.08,12.51-2-.64-3.16.3-4,2h0a40,40,0,0,0-1.56-4.67c-1.07-2.29-.67-6.36-3.66-6.4s-.84,4.36-2.74,6c-.08-5.11-3.79-8.61-5.78-12.87-1.49-3.19-5.15-3.73-7.68-3.3-3.46.6-.24,3.08-.09,4.7.25,2.65-.41,4.83-3.29,4.61-4.36-.34-5.82,1.08-5.15,6-6.57-.81-7.46,3.61-8,8.52-.27,2.64,1.55,5.06.62,7.72l0,.06c-1.93-3.59-2.06-3.66-3.92-.4-.61,1.08-1.27.85-2,.76-2.93-.34-3.63,1.91-3.38,3.75.76,5.59-2.18,4.24-5,2.91-.76-.35-1.92-1-1.83-.15.38,3.86-3.51,6.15-3.35,9.7.21,4.68,0,9.53,3.37,13.46a2.93,2.93,0,0,1,.87,2.52c-.46,4.79,5.41,12.25,10.27,13.52a1.45,1.45,0,0,0,.39.68c0,.32-.06.64-.1,1-.61.26-2-.2-1.29,1.31,1.25,2.12,3.84,1.09,6,2.08-1.41.71-2.32,1.35-2.15,2.44.22,1.36,1.57,1.33,2.39,1,5.12-2.33,4.52,1.68,5,4.45.28,1.51-.55,3.23.68,4.68,6.06-5,6.76-13.56,1.61-17.43.51-4-2.93-3.35-5-4.31,1.79-.37,3.74-.45,5.09-2.33-4.69-1.15-5.07-1.56-4.79-4.94,1.65.67,3.35.82,4.32-.89.82-1.47-.5-1.94-1.68-2.23l-1.53-.62c.5-1.33,1.6-1.89,2.79-2.53,1.72-.92,1.22-3.69,3.33-4.45a3.94,3.94,0,0,0-3.14-1c-.56-2.05,2.62-1.39,2.35-3.24l-.12.09c.56-.75,2.75-.65,2-1.55-2.1-2.62-2.41-5.67-3.45-8.58-1.34-3.76-3.33-7.2-2.5-11.29.51-2.57-.83-4-2.3-5.63,1.08-.13,1.72-.62,1.51-1.81l1.67-.35,3.79.7c.43.22.91.41,1.13-.18.07-.18-.28-.51-.43-.77l-1.19-1.45,1.11-1.11c.78-.27,1.58-.74,1.37-1.61-.32-1.27-1.52-1.38-2.63-1.44L124,138.94a6,6,0,0,0,2,.19c9.9-2.55,16.48,1.66,21.29,10.06,1.24,2.16,2.18,7.39,6.34,2.22.09-.11.61.13.94.21l.92,0L155,151c.67-1.38,1.89-.9,3-.9,1.64,2.29,3.25,4.58,4.91,6.84.5.68,1.18,1.27,2.11.93s1-1.26.9-2.08a10.08,10.08,0,0,0-2.47-5.83c-1.92-2.24-3.67-4.62-5.5-6.95,6.22-2,6.55-2.82,4.77-12.12-1.42.38-.25,2.72-2.47,2.77,1.19-11.83.72-23.49-3.5-35.58-.35,1.9-.56,3-.76,4.08-1.37-.84-.75-2.33-1.18-3.46-.37-1,0-2.49-1.73-2.67L152.88,98a4.52,4.52,0,0,0-.63-.08c-1-8.2-3.25-15.85-9.58-21.75.88,6.88,3.45,13.36,4,20.25l-1.63-.32a75.08,75.08,0,0,0-16.33-38.74C127.91,60.88,131,63.58,130,67l-2.32-.87c-.76-2.19-1.49-4.4-2.29-6.58-.36-1-.94-1.87-2.2-1.26s-1.08,1.48-.68,2.53c.77,2,1.92,3.9,1.66,6.18-3.63-3.89-3.86-9.85-7.81-13.59-1.38,1.33.54,3.57-1.5,4-1.21.25-1.39-1.56-2-2.49,0-3.2-2.27-4.82-4.77-4.42-2.21.36-.85,3.11-1,4.78a12.11,12.11,0,0,0,.48,2.93q-1.66-2.22-3.34-4.42l-.46.07-.06.46c-.36.79.69,2-.71,2.54-1.53-1.47-1.64-3.57-2.53-5.3-.47-.92-1.17-2.79-2.26-.89-1.51,2.63-1.86.87-2.25-.37-.55-1.73-.78-3.55-1.27-5.3-.24-.82-.2-2.09-1.74-1.75-3.69.82-3.68.76-3.65-3,0-4.45,3.35-7.89,3.67-12.24l.44-.18L93,27.09c4.62-6.36,12.26-5.61,19.15-7.61l-3-1.86,13.61.11a2.73,2.73,0,0,0,3.36-1.47c.86-1.53-.44-1-1.08-1.15l-2.13.11L106.17,14l0,0L105,12c6.55.45,13,2.23,19.66,1.23-6.35-1.42-12.9-1.35-19.19-3-5.35-2-10,.27-14.68,2.3,2.5.3,4.81-1.05,7.3-.6l-.15,2.1c-2.92-.42-5.25,1.44-7.91,2-.42,0-1-.39-.94.5l-.4-.09-.08.4c-.78-.34-1.36,0-1.25.75,0,.27,1.1.39,1.7.58-3.31,3.81-8.66,4.73-12,8.49C72,32,71.71,36.64,75.86,44c-1.47,1.75.81,2.07,1.19,3.11-1.09,5.08,3.29,9,2.88,14-2.36.39-.83,1.77-.46,2.5.52,1,1.43,2.08,2.57.41,2.09.23,3-.61,2.89-2.81-.13-2,0-4,0-6l1-3.69c0,5.87-.1,10.3,2,14.35,0,6.45,1,8,6,8.54-.39-2.43-.77-4.82-1.15-7.2l1.11-1c.2,4.47,3.33,8.16,3.35,12.68l-1.9-1.1-2-1-2-1c-.61-.52-1.22-1.1-2-.33l1.3,1.23,2,1Zm170.64,21.71c.53-.59,1-1.19.37-2l-1.2,1.23-.65,1.29a5.64,5.64,0,0,0-4.3,1.73c-1.4,1.5-2.72-2.32-4.37.14,1.59,1.7,3.21,2,5.09.58l4.48-1.69C264.83,101.16,265,100.74,265.22,100.31ZM263,28c-.34-1-1.22-1.26-2.11-1.5-1.21-5-6-4.86-9.44-6.69-1.52-.82-4.31-.46-3.5-3.58,2.05-.83,2.05-.83,1.48-1.44-2.9-3.1-11.87-4-15.46-1.49a4.14,4.14,0,0,0-4-.57c-6.93,1.83-14.2-2.68-21,1.14-.9-4.57-4.36-1-6.76-2.9,1.2,4.53,4.85,2.58,6.73,4.12,2.83,2.35,6.13,2.84,9.68,2.57a50.87,50.87,0,0,1,14.2.68,17.85,17.85,0,0,0-2.43.4c-1.12.33-3.21-.08-2.69,1.88.4,1.49,1.82.34,2.9.18,4.76-.68,9.11.84,13.27,3,1.44.74,4.08,1.61,3.76,2.79-1.12,4.09,2.29,6.71,2.58,10.22l-.66.65c-2.26-.18-.7,1.55-1.14,2.28-.21.15-.42.32-.62.49-2.43,5.56-8.9,8.29-10.54,14.57.22-1.58.45-3.16.67-4.74l.05.05c-4.27.68-2.14,5.59-4.83,7.32a13.37,13.37,0,0,0,.08-2.44c-.19-1.5,1-3.85-1-4.29a3.54,3.54,0,0,0-4.42,3.36c-1.86-.82-2.74.59-4.12,1.43-3.05,1.84-2.93,6.26-6.53,7.44.72-2.9,3.16-5.29,2.74-8.92-4,1.54-4.48,5.14-5.89,8.07-2.2,2.8-2.44,6.85-5.76,8.92,1.15-3.42,2.32-6.84,3.44-10.27.29-.88.91-2-.27-2.58-.83-.42-1.61.25-2,1-3,5-6.64,9.78-7.58,15.81l0,.06a10.14,10.14,0,0,0-3,8.06l0-.07-3,4.09L196,87c-1.58-1.11-.61-2.12,0-3.34,1.05-2.26,2.35-4.55,1.34-8.2C189.55,84,190.27,95.35,185,104l-1.9-3.74c-3.49,10.44-4,20.87-3.23,31.31-2.07.12-1.11-2.15-2.86-2.24,1,4.88-2.19,11.08,5,13.66-.13,1.65-1.57,2.47-2.31,3.73-1.57,2.7-4.58,4.44-5.21,7.75-.26,1.41-1.12,3.22.6,4,1.53.68,2.14-1.14,2.9-2.13,1.79-2.35,3.08-5.18,6.16-6.26.31,2.42,3,.5,3.87,2.21,1.34,2.72,1.53,2.73,3.11.41s3-5.17,4.81-7.55c4.71-6.29,12.58-8.43,18.07-5.11-1,.21-2.06.39-2,1.64,0,.88.81,1.34,1.63,1.59,3,2.5,8.12,4.05,4.42,9.64-.07.1,0,.33.05.48,1.48,3.58.28,6.78-1.4,9.92-.53,1-1.94,2.45-1.21,3,3.83,2.94-1.17,3.21-1.31,4.86-1.63.18-3.24,1.15-2.93,2.6.44,2.12,2.65,1,4.11,1.2l-1.22,1.14-.68.38.79.14,4.94-1.62.41,1.15c-1.26.77-2.78,1.32-3.72,2.37-1.68,1.88.6.83,1,1.16-1.07,1.85-2.69,3.76,1.13,4.48.8.16,1.42,1.26,2.12,1.93h-.05c-1.82.07-4,.13-4.1,2.38-.06,2,2.2,2,3.71,2.42a16.46,16.46,0,0,1,2.18,1c-1.36,1.87-3.61,2.31-6.24,3.26l4.12,2.25c-.72,1.61-2.88-.1-3.16,1.86l-.83.92c-2,1.75-3.27,3.73-2,6.5-1.35,1.19-1.91,2.55-.93,4.25a16,16,0,0,0,4.66,8.64c.6-3.23,2-6.11,1.39-8.49-1-4,1-4.71,3.83-5.1,1.8-.25,5,0,5.07-1.13.5-4.75,6.17-4.27,7.68-8.39.64-1.76.09-3.71,1.18-5.14,3.34-4.4,4.38-9.71,6.21-14.74,2.15-6-4.14-9.69-3.28-15.69-1.66,2.58-3.14,4.78-6.22,2.85a13.41,13.41,0,0,0-1.18,1.48h0a12.31,12.31,0,0,1,.15-2.86c.94-3.25,1.59-5.77-3.2-6.9-1.19-.29-4.25-2.89-5-5.26a39.16,39.16,0,0,1-1.22-8.68c-.13-1.7-.67-3.18-2.4-3.12-4.11.15-5.38-2.24-5.78-5.69l2.61-5.71c2,.25.43,2.73,2.55,2.89l1.21-3.62c.88-.52,1.48-.4,1.63.73-1,2.18-1.08,4.31.39,6.34l2.7,3.81c.92,2.36,1.43,5,4.87,6.35-.25-2.6-.44-4.66-.64-6.72,4.74,2.78,4.62,8,6.14,12.37,1.85,5.29,4.49,6.59,9.24,4.18l.73.85-1.79,4.07c.4,1.26,1.71,1.06,2.58,1.57-2.51,5-1.31,9.34,2.09,13.38l-.09-.08c-1,2.66,1.9,4.52,1.26,7.36-1.1,4.89-10.2,19.06-14.13,22.38-1.61,1.37-5.82,3.4-1.58,6.94.58.48,1.61,4.46-2.4,3.79-1.13-.19-2.44.2-3.43-.22-4.14-1.75-5.16.2-5,3.86l.06-.11c-.6,3.24-.44,6,3.89,6L226,224c-3.9-.12-7.36-1.66-10.79-3.31-1-.48-2.27-1.48-3-.06s.76,2.07,1.73,2.59c3.75,2,7.67,3.62,12,3.77,1,.51,1.66,1.89,3.33.81,2-1.32,4.54-1.48,6.95-1.65-4,6.29-11.1,6.69-17,6.7-3.67,0-4.87.95-6.39,3.29-1.17,1.8-2.36,3.59-3.54,5.38l.09-.06c-1.46-1.16.69-4.13-2-4.45s-2.84,2.38-3.62,4c-1.14,2.36-1.16,6.29-2.86,7.14-4.28,2.15-3.64,5.52-3.85,8.91l-1.9-.25c-.11-.21-.21-.43-.31-.65-.11-1.37-.64-3-2.11-2.48-2.14.72-2.16,2.85-1.82,4.84l-.63,3.42c-2.12,2.8-.68,5.43.11,8.18,1.87-.43,1.57-2.21,2.53-3l.88,4.73c-1.46,1.08-1.59,2.19-.1,3.35-1.63,5.08,1.16,9.8,1.23,14.74-1.55.68-2,2.09-2.3,3.56-4.12.38-2,3.95-3.05,5.92l.09.08c-2.72.66-5.27,1.27-7.43,3.55a5.85,5.85,0,0,1-7.17,1l-2.15.65a1.35,1.35,0,0,0-.82,0,1,1,0,0,0-.79,0c-1-.71-2-.24-3-.13l-1.12.49c-6.43.25-11.19-3.36-16-6.94l-.8-.64c.87-1.89.13-2.88-1.58-4a6.7,6.7,0,0,1-2.72-8.27c1.55-3.67.88-7.07.68-10.63a17.28,17.28,0,0,1,1.24-8.7q1,2.6,1.91,5.18c.72.59.62.21.4-.33a23.43,23.43,0,0,0-.4-13.6c-.67-2.17-1.58-4-3.92-1.29-2.25,1.69-2.87.4-2.94-1.68-.07-1.66.15-4-1.14-4.63-4.54-2.08-3.59-6.61-5.09-10,2-1.69,2.22-5.13,6.15-5.1,1.87,0,.94-2.71.63-4.21-.18-.88-1.6-1.49-1.87-.92-1.55,3.28-1.7.83-2.4-.41-1.21-2.16-2.89-3.08-5.3-1.59s-.88,2.84,0,4.45c1.32,2.39,3.3,4.63,2.68,7.72-1.43-1.09-2.54-2.81-4.73-2.4l-.25-.51c0,.1,0,.25,0,.3s.23.09.35.13c-.21,1.18-.42,2.36-.77,4.36-1.8-2.62-3.19-4.64-4.56-6.67-.73-1.09-1.68-3-2.86-2.23-3.15,2-5.87-.08-8.67-.45-6.54-.88-11.88-4-15.24-9.93.19-.23.39-.46.58-.7a14.34,14.34,0,0,0,6.33,1.85l.19,2.8c6.78,4.74,19.27,4.22,22.59-1.16-4.12-.41-7.56,3-11.61,1.79,2.59-1,5.2-1.91,7.75-3,.92-.38,1.9-1.21,1.33-2.3s-1.74-.72-2.65-.29A25.27,25.27,0,0,1,114,224l-.86-.88c.65-.09,1.47,0,1.93-.31,3.57-2.68.41-6.43,1.21-9.68.31-1.27-2.7.37-4.22.21a22.59,22.59,0,0,0-3,.07l-1.25-1.52c4.09-3.14-1.11-3.46-1.58-5.22a2,2,0,0,0,0-.9l0,.13c1-3-1.37-3.29-3.24-4l-4.62-.61v.07c2.07-1.63,2.59-2.73.4-5.32C94.5,190.89,90,185.48,90.09,178l-.1.08c2.27-2,2.11-5,3.35-7.42,2.45-4.79-.62-10.25,1.87-15l1-.74c2.09.18,3.93,0,3.81-2.82l.16-.17c2.22,1.11,3.43.78,4-2,1-5,2.45-9.92,5.82-14a17.07,17.07,0,0,1,.48,2.32c.09,1.19-1,2.87.65,3.41,2,.65,2.16-1.46,2.85-2.6a13.24,13.24,0,0,0,.86-2.25c1.85-2.14,3.45-4.32,3.13-7.43-.11-1.1-.38-3,2-2.19.21,1.53.13,3.18,1.64,4.33.84-1.65.31-3.21.09-4.76l1.36-1.56c.32,1.53.39,3.2,2.31,4.21a4.44,4.44,0,0,0-.57-4.22l-3.46-.31,1-.33c1.5.19,2.14-2.47,3.88-1.24,1.27.89,2.4,1.08,3.39-.22s-.62-2-.75-3.11c-.37-3.19-3.44-4.84-5.32-5.17C115.25,113.31,111,108,108,101l.08.09c-.14-2.45-4.87-3.17-2.49-6.58.74-1,1.15-2.26.14-2.94s-.9.91-1.41,1.38c-2.15.78,0-3-2.53-2.25-4,1.23-10.19,10.48-9.47,14.76.1.58,1.21,1,1.85,1.48-1.15,1-3.78.12-3.77,2.22s2.29,1.64,3.75,2c.57,5.41,0,11.29,5.91,14.54a1.76,1.76,0,0,1,.66,1.27,64.61,64.61,0,0,0,2.57,12.14c.43,1.5-3.92,6.88-4.47,6.19-2.54-3.19-7.48-.42-9.74-4.48,1.2,3.05-2.78,4.5-1.66,7.17.45,1.08,1.49,2.29.15,3s-2.72,0-3.89-1.27c-1.7-1.84-1.49-3.94-1.48-6.08,0-1.88.67-3.91-1.68-5.94-.92,3.68-3.87,6.68-2.7,9.84a15.15,15.15,0,0,1,1.1,4.67c.15,2.87,1.69,5.7.07,8.59,6.66,2.32,5.31,4.67,1,8.83-1.59,1.52-1.83,2.62-4,1.65-2.61-1.18-4.42.06-6,2.11s-.12,3.07.86,4.65a10,10,0,0,0,5.81,4.31c-.92,1.43-3.7-.4-3.35,1.87a4.67,4.67,0,0,0,4.54,3.95c2.43.1,4.91-.31,6.69,1.05a16.84,16.84,0,0,1-7,6.85c1.19,2.19,3.26,1.25,4.66,2.11s3.24.54,4.19,1.88c-.12,1.84-1.5,2.87-2.09,4.35-1.49,3.73-3.36,6.25,3,5.58.82-.09,3.82,1.47,3.55,4.1-.1.93.12,2.64-.89,2.51-7.59-1-2,3.8-2.4,5.72-.29,1.35.63,3.89,2.61,3,1.32-.57,3.68-2.19,2.26-5,1.54,1.39,5.77.94,4,4s-1.37,4.06.92,6.41c2.58,2.65,5.68,3.52,8.76,4.26a11.73,11.73,0,0,1,7,4.39c3,3.67,6.23,7.87,11.6,8.74a3.7,3.7,0,0,1,2.91,2.43c.47,1.14-.42,1.71-1.41,2.22-2.88,1.49-4.5,4.23-2.94,6.94s4.33-.14,6.58-.21l0,.26,0-.37c.56-2,5.48-2.3,2.12-5.71l.17-.35c1,.5,2.2,1.61,3,1.39,6-1.53,5,2.9,5.5,6.11l-1.66,1.38c-.87-.45-2.23.14-2.64-1.26,1.08-.26,2.61-.57,2.06-1.91-.42-1-1.69-.1-2.4.44a5.94,5.94,0,0,0-1.1,1.51c-2.95,3.82,1.94,4.68,2.51,7.94.74-1.8,1.16-2.84,1.58-3.88l2.19-.62c1.07,6,4.18,12.19-1.31,17.73-.56-.5-1-1.27-2-.72a.83.83,0,0,0-.25.78c.49.93,1.39.34,2.11.48-.3,1.69-1.61,2.46-2.94,3.21l-2.08.13c.74-1.6,1.79-3.23-.11-4.73a1.29,1.29,0,0,0-2.08.47c-.53,1.68-3.52,2.86-1.46,5a8.9,8.9,0,0,1,2.49,5.78,2.76,2.76,0,0,0,3.36,2.95c3.74-1.71,3.58,2.66,5.59,3.24,4.87,1.4.49,3.78.61,5.63.08,1.22-.94,3.38-.08,3.7a19.22,19.22,0,0,1,7.76,5.17.64.64,0,0,0,.41-.22c1.09-3,1.93-.93,2.88.11.43.46,1,.85,1.62.18,2.56-2.58,4.91-1,7.25.42l-.19,3.69-1.05-.45c-.2-.64-.53-1-1.28-.74-.43.47-.85.94-1.29,1.41-.82.87-2.95,1.23-2,2.79.7,1.19,2.37,1.63,3.75.12.3-.32,1.22-.08,1.86-.1.1,3.46,3.15,4.47,5.78,7.74-.57-3.7-.55-5.65,2.7-5.72,3.86-.1-.18,3.67,2.42,4.09,1.67-1.25,3.26-2.64,3.22-5.12,1.76-2.66,4,1.43,5.8-.41,1.63,2.69,3.1,1.34,4.67-.12,1.13-1,1-2.27,0-3-2.59-1.8-2,2.23-3.75,2.22-1.9-1.85-3.41-4.91-6.79-2.23l-.31-1.32c1.72-5.09,2.55-6.1,4.37-5.24,2.74,1.28,5.17.63,7.44-1.11h0a6.58,6.58,0,0,0,6.69-6.13c.14-1.82-1.26-4.06,1.6-5.6a6.46,6.46,0,0,0,3.46-7.61c-.31-1.33-1.43-3.16.72-4.22,1.28,1.88-.17,4.85,2.46,6.19l1.19,1.78-1.18,1.39.69.5,1-1.45c1.07-.53,1-1.52,1-2.49v-1.31c.75.11,1.66.79,2.15-.21a1.54,1.54,0,0,0-1.05-2.3c-1.39-.39-2.85-.57-4.27-.83-.17-1.21-.73-2-2.07-2-4.72-6-2.79-13.25-3.79-19.94L202,267c.25,2.49,2,5-.52,7.46-.91.89.41,2.44,1.15,3.46a1.89,1.89,0,0,0,1.7.53c1.16-.76.71-2.1.64-3.19a25.34,25.34,0,0,0-2.06-9.15c.57-2.63-.89-4.06-3-5.12-.06-6.76-.06-6.76,10.51-8.16-1.35-3.81-.8-5.18,4-5.45,4.29-.24,9.24-2.39,11.84-6.16,4.54-6.56,11-7.45,17.89-7.73,0-.16.07-.33.08-.49.09-1.48-2.15-.72-2.14-2.15,4.05-1.91,3.92-1.84,1.74-6.24-1.39-2.83.28-3.89,3-3.92,1.56.67,3.47,2.28,4.69.32,1-1.56-.86-2-2.23-2A1.94,1.94,0,0,1,250,217c1.43-.22,2.91-.33,3.92-1.59a7.81,7.81,0,0,1,4.39-.12c.9.32,2.16,1.17,2.59.08a4.87,4.87,0,0,0-.3-3.72c-.71-1.27-2.39-.65-3.67-.75.05-.27.1-.53.13-.8,2.77-2.89-1.36-2.35-1.81-3.63.95-3.28,5.16-1.31,6.93-4.13L256,200.9c-1.92-2.57.87-3,1.93-3.24,4.23-1,2.81-2.95.7-4.53-1.05-.79-1.88-1.33-1.56-2.63a3,3,0,0,1,2.81-2.39c1.13-.15,2.21-.56,3.33-.78,1.42-.28,2.49-.82,2.67-2.47.27-2.56-2.09-1.46-3.55-2.59,3.74-.35,6.55-1.93,7.44-5.23.57-2.11,2.5-4.79,1.14-6.38-1.59-1.85-4.44-.34-6.49.59-2.73,1.23-4.79.58-5.6-2-.67-2.18-2.16-3.4-4.15-4.77,2.3-1.14,4.09-2,5.82-2.91.55-.3,2.12-.75.75-1.54-2.58-1.5-.59-3.1-.51-4.69.19-4,.35-8.06.37-12.1a1.64,1.64,0,0,0-1.86-1.8,1.66,1.66,0,0,0-1.32,2.27c.88,2.37-.24,4.19-1.41,6a2.14,2.14,0,0,1-2.55,1,1.54,1.54,0,0,1-.92-2.39c1.62-2.8-.81-3.27-2.31-4-2.67-1.22-5.49-2.75-8.2.1-.37.4-1.27,1.29-1.51.53-.85-2.64-5.85-3.55-3-7.83.83-1.26,2.6-3.89-.87-5l-.42-.5c3.18-5.59,9.37-9.23,9.76-16.85.12-2.19,1.55-3.63-.26-6.19-.86-1.22,2.75-3.92,2.76-6.65,0-.66-.14-1.5-1-1.28-3,.78-2.81-1.5-2.89-3.13-.1-2-.35-3.65-2.83-3.73-1.83-.07-2.06-2-3.21-2.8-4.14-.82-3.78,2.27-4.11,4.75l-1.24,0-.36,0c-.31-.26-.75-.82-.91-.75-.86.39-.48,1.19-.45,1.87L234,99c-.78,2-2.62,3.39-2.65,5.75,0,.9-5.34,4.31-6.29,4.28.21-.37.69-1,.6-1.06-.72-.84-1,0-1.3.46-1.8,2.39-2.38,7.7-7.12,3-.38-.38-.89-.72-1,0-.36,3.59-4.09,5.35-4.69,8.81-.15.89-1.24,1.72-.15,2.6a1.9,1.9,0,0,0,2.67.18c.76-.62,1.6-1.23,2.61-.38-2.29,3-1.66,6.65-1.94,10.08-6.11-.84-6.42-1.23-5.43-7.24.46-2.76-1.35-2-2.74-1.77-4.32.64-9.74,6.36-10.86,11.54-.49,2.29-.89,4.58-2.61,6.34,0-.66,0-1.33,0-2-.13-2,1.58-5-1.38-5.5-2.72-.48-2.95,2.83-3.44,4.7-.8,3.07-2.27,4.2-5.29,3.21.87-5.64,3.41-11.67,7.45-14.25,4.67-3,3.88-6.5,4.76-10.15.15-.63.28-1.32,1.19-1.28,1.65,1.42-.61,4,2,5.63,4.05-6.46,1.8-14.66,5.68-21,.83,4-.41,7.87,1.32,11.76.89-3.54,1.79-7.08,2.9-11.47l1.64,4c1.56-2.88,2.63-7.14,4.25-7.36,3.74-.53,3.78-3.21,4.91-5.3,1.71-3.19,3.2-6.5,5-10.25,1.12,1.94,1.11,3.46,4.1,2,4-2,4.22-6.86,8.21-8.23a22.72,22.72,0,0,1-2.21,8.9c-.33.76-1.52,1.19-.79,2.62L235,85.09c2,1,4.64-.14,6.45,1.83a1.35,1.35,0,0,0,2.14-.19c.61-.91-.35-1.24-.86-1.84-1.7-2-1.29-3.83,1-5.15l1-1.43-1.89-.2c1.24-4,3.67-7.66,3.14-12.1l-.06.14,1.06-1,1,1c-.41,2.06-.8,4.12-1.22,6.17-.37,1.82.22,2.82,2.2,2.69l-1.62,1.46-1.27,1.25c.84.68,1.46.18,2.06-.39l3.54-1.62.94-1.43-1.78-.13c.76-3.62,3.11-6.95,1.92-10.9l3-7.07c-.14,3.26-.29,6.51-.46,10.49,4.91-5.51,5.52-7.66,3.75-11.78L264,51.09c3.48,2.74,1.88-1.45,2.88-2.11,0-.75.49-2-.32-2.07-1-.09-.85,1.33-1.17,2.12l-1.44,2.14c0-2.05,0-4.1,1.14-5.94,2.15-5.22,3.32-10.37-.93-15.19l0-.06a1.7,1.7,0,0,0-1-2Zm-159,22-.06,0-.28-.07Zm103.38,5.21-1.63,1.68-1,1a13.18,13.18,0,0,0-.88,1.44c1,.76,1.27-.33,1.84-.73l.71-.72,1.62-1.71,1.05-.93c.7-.47,2.2-.86,1.51-1.76s-1.54.51-2.26,1Zm-6.62,6.66L200,63.44c1.06.56,1.32-.48,1.87-.93.14-.38.47-1,.38-1.11C201.62,61,201.19,61.39,200.83,61.9ZM134.51,15.63l1.62-1.41A6.33,6.33,0,0,0,139,11c.31-1,.15-2.32-1.31-1.82-2.41.84-4.69,2-7.09,3.13,1.65,2,3.6-1.7,4.65,1.15l-1.52,1.41-.47,1ZM182,236.94c.49,1.23,1.05.52,1.6.07l0,0c1.55-.07,2-1.3,1.91-2.4s-1.19-.76-2-.76h.12c0-1.9.51-3.93-1.74-5l-3.75,2c-.23-1.12-.19-2.35-1.35-3.05-3.94,5-5.67,5.09-9.39.47-2.79,3.41-.87,5.82,1.4,8.14,2.9-2.55,5.27-6.27,8.78-.82.74,1.15,1.57-.35,1.91-1.29.56-1.45.7-3.12,2.13-4.11.12,1.62.24,3.24.35,4.86Zm41.78,16.25.67.6.68-1c-.68-1.54-1.68-3.51-3.46-2.5-2.42,1.37-.41,3.59-.52,5.77C222.56,255.12,221.71,252.91,223.75,253.19Zm11.77,38.29c-1.72,1.24-3.61,2.36-3.48,4.87,0,.23.78.66,1.13.6,2.37-.4,2.48-2.73,3.51-4.27a2.26,2.26,0,0,0,.24-.43l-.2-1.3ZM86.28,97.06c-1.67,0-2.18-1.67-3.43-2.27L86.38,97c-.69,3.38,1.78,2,3,1.75a1.41,1.41,0,0,0,.81-2.33C88.92,95.34,87.29,95,86.28,97.06ZM78.75,290.62c-2.17,1.8-5,3.19-4.75,6.93,3.93-.52,4.54-3.51,5.49-6.22v-1.08ZM224.85,94.87c-3.52,2.74-3.57,4-.1,7.38,0-2.63,0-5.06,0-7.49,2,.79,1.5,3.89,4.37,4.64-.46-2.37.88-4.71-1.45-6.17C226.06,92.22,225.36,93.56,224.85,94.87Zm43.31,1.84.72-.2-.64-.53c1.41-5.13-.06-10-1.46-14.82,5.49,3.24,4.61,9,4.52,13.77-.08,4.27-4.15,7.46-6.36,11.18,0,.08-.37,0-.47,0-4.46,3.77-10.26,6.26-11.51,13-.71,3.79,1,6.21,4.77,5.92,2.14-.16,3.64-1.57,5-3,1.16-1.17,2.07-3,4-2.51,3,.74,3.95-1.42,5.58-3,3.92-3.89,1.9-9.22,3.66-13.62,2.37-5.93,2.75-11.78-1.71-17.13-.67-.8-1.82-2.5-.32-2.93,4.88-1.4.22-2.79-.12-3.68s-2.66-1-3.15-2c-2.59-5.11-5.07-2.21-8-.32,1.8,1.45,4,2,4.19,4.41a5,5,0,0,1-.75-.32l-.89-.64c0,.43,0,.85,0,1.28a29.2,29.2,0,0,1,2.09,10.2C267.26,93.43,266,95.38,268.16,96.71ZM63.67,187.3c-1.68-1.35-2.43-3.94-5.36-4-.37,3.5,1.81,4.43,4.59,4.81,4.54,4.09,4.54,4.09,9.89,1A10.87,10.87,0,0,0,63.67,187.3Zm88.17,93.8c.08.43.15,1.24.25,1.24.92,0,.78-.79,1-1.36,1.75.39,3.49.86,5.26,1.13a1.87,1.87,0,0,0,1.6-.66,1.28,1.28,0,0,0-1-1.83c-3.09-.07-5.58-1.39-8.14-3-1.6-1-2.08.8-1.59,1.8S150.91,280.23,151.84,281.1Zm8.15,6.84c1.8,2.47,4.68,2.87,7.27,3.81l-.28.82h.65l-.49-.74c1.77-2.57.31-4-1.94-4.73a51.25,51.25,0,0,0-6.19-1.35c-.47-1.13-.69-2.89-2.49-1.74-1.11.71-1,1.91,0,2.95.67.71,1.1,1.63,1.75,2.35.39.44.68,1.92,1.61.56C160.19,289.41,160,288.59,160,287.94Zm46.5-65.77c-.42-.13-1-.49-1.21-.34-.64.57-.15,1.07.34,1.5,4.39,4.57,10,5.53,16.18,4.62Zm-4.4,13.23c.51-.76,1-1.52,1.52-2.29,3.49-.24,5-2.65,3.38-5.25-2-2.06-3.94-1.59-5.3.62-1.45,2.38-3.13,5,.5,7.15.34,0,.93.4.77-.45ZM68.75,165.29c2.58,2.71,5.83,2.76,9.07,2.6l-5.45-6.19c2-3.3,1.39-6.47-.2-9.76-1-2.06-.06-3.95,1-5.95,2.07-4.09,5.32-7.79,4.57-13-.17-1.11.11-1.88-1.21-1.93-1.12,0-2.38-.5-3.31.48-1.24,1.31.26,1.81.93,2.13,2,.92.4,1.8,0,2.51-2.93,5.14-6.15,10.18-3.4,16.49.19.42.26,1.28,0,1.42-4.91,3.33,0,5.61.85,8.3.36,1.9-1.25,1.87-2.32,2.37A39.68,39.68,0,0,1,63,153.6a10.93,10.93,0,0,0,.34,9.7C64,164.57,66.87,164.66,68.75,165.29Zm205-2.49c-4.62-.5-8.23,1.37-11.17,5,3.47-1.39,8.11,2,10.7-2.91.29-.55,1-.89,1.45-1.32,3.29-1.59,4.31-4,2.9-7.55C276.27,158.35,272.91,159.38,273.71,162.8Zm-6.21-23.29a21.91,21.91,0,0,0-.64-2.41c-.47-1.19-1.88-1.49-2.39-.8a4.74,4.74,0,0,0-.29,5.19c1.09,1.78,1.8.16,2.41-.77.5,2.8-.73,5.59,1.88,8.49,1.59,1.76-1,5.49-2.5,8-.56.93-1.86,2.37-.24,2.71s3.48-.54,4.91-1.43a2.41,2.41,0,0,0,.67-3.82c-.69-.74-1.67-1.34-1.29-2.42C271.69,147.52,270.62,143.32,267.5,139.51Zm-66.17,164.9-.16.18.24-.13a32.16,32.16,0,0,1-1.6,3c-2.95,4.41-2.18,9.36-2.1,14.19,0,1.22.8,2.57,2.06,2.35,1.81-.32,1-1.75.47-2.72-2.28-4.34-1.05-7.88,2.71-10.47,1.55-1.06,1-3,2.6-4,1.23-.8,0-2.14-.84-2.86-1.63-1.43-1.53.2-2.14,1.15S201.6,304.94,201.33,304.41ZM150,245l.05,0c-.24,5.52,2.42,10.57,2.58,16.06.05,1.74-.31,3.94,1.34,5.72,2.44-4.9,4.47-9.43.68-14.26a4.4,4.4,0,0,1-.63-2.39C153.87,247.39,152.26,246,150,245Zm38.65,42.61a5.11,5.11,0,0,0-2.66,2.14c-7.93,11.31-24.05,11.19-31.56-.2-.51-.78-1.09-1.75-2.77-1.06.77,3.23,1.77,6.42,5,7.92a31.19,31.19,0,0,0,22.71,1.76c5.49-1.62,8.45-4.84,9.73-10.1l-.07-.41ZM175.87,104.81c.84,1,1.74,4,2.56.06a29.9,29.9,0,0,1,3.43-8.64c2.36-4.15,1.39-7.11-2.65-9.32-7.62-4.36-13.56-4-19.08,1.32l-1,.89a4.73,4.73,0,0,0-.09.93c-2.49,1-1.8,2.75-1.1,4.46,1.19,2.86,2.85,5.6,3.59,8.57,1,4,2.37,3.6,4.53,1,2.27-2.38,2.69-5.75,4.49-9.15C171.65,99.12,172.54,102.68,175.87,104.81ZM99.22,274.2l.07.1c-1.17-2.21.67-4.48-.18-6.77-1-2.68-2.63-4.15-5.56-3.93A4.72,4.72,0,0,0,89,267.42a1.72,1.72,0,0,0,.77,2.13c.8.36,1.24-.24,1.46-.89.53-1.59,1.46-2.78,3.25-2.16,1.48.52,1.6,2,1.39,3.38-.28,1.91-1.47,2.82-3.32,3.14-2.89.51-4.34-1-5.06-3.51-.81-2.81-.5-5.28,2.33-6.84,5.33-2.94,5.53-3.6,2.39-10,.11,5.49-2.37,8-7.24,7.79-1.38-.05-1.16.57-1,1.49,1.45,8-.36,14.55-8,18.65-.21.11-.21.61-.31.92-.47.38-1,.8-.45,1.4.18.19.78,0,1.19,0,1.49-1.06,3-2.14,4.47-3.18,2.06-1.43,10.53,2.15,9.72,4.1-1.88,4.51-2.17,8.61-.09,12.95.06.11-.06.33-.14.47-4.39,7.38,1,14,.8,22.39,6.14-10.35.76-20.75,4.6-30,.22-.54-1.39-1.73-1.93-2.74-.9-1.67-1.59-3.75.55-4.74,3.22-1.5,5.88-5.73,10.5-2.29C103.67,277,102.33,274.69,99.22,274.2Zm137.21,6.86c3.47-4.11,6.49-1.32,9.77.45,2.73,1.48,3.5,3.13,1.15,5.33s-1.87,3.82-.13,6a4.38,4.38,0,0,1,.13,5.57c-.69,1-1.38,1.83-1.15,3.14,1,5.63,1.92,11.27,2.88,16.91l1.34,0c-.07-7.13,4.94-13.83.83-21.35a3.7,3.7,0,0,1,.77-4.21c1.85-1.86,1.82-3.39,0-5.48s-1.76-4.11,1.22-6c3.48-2.2,6.6-3.32,10.44-.59a12.6,12.6,0,0,0-6.49-6.75l.1,0c1.19-4.52-1.21-9.3,1.24-14-7,1.9-9-2.1-9.78-7.9.27,3.87-5.33,8.81,2.59,10.79,1.09.27,2.13,1.67,2.73,2.79,1.29,2.37.34,4.65-1.32,6.36s-3.78,1.28-5.56.22-1.7-2.81-1.19-4.47c1-3.35,3.41-.15,5.18-.55-.46-3.58-2.61-4.05-5.1-3.48-3.17.74-3.8,3.35-4,6.16-.08,1.27,1.56,2.48-.53,3.85-2.26,1.49-4,3.78-6,5.71-.73.69-2.34,1.18-1.44,2.39C234.82,282.79,235.77,281.66,236.43,281.06ZM201,144.05c-3.92,1.6-5.59,4.73-6.32,8.73-1,5.5-4.95,8.3-9.72,7.93-1.92-.15-4.73-4.08-6,.63-.93,3.54.9,5.62,4.41,6.48a11.8,11.8,0,0,1,3,1.72c2.61,1.62,4.6,1.62,6.76-1.17s5.35-5.23,8.91-3.9c7.79,2.9,7.59,2.94,10.82-4.54,2.32-5.39-1-7.48-4.22-10.24-3.44-3-3.92,2.19-5.56,1.87-4.75-1.78,7.81-6.82-2.16-7.6a1.39,1.39,0,0,0,.46-.07c.08,0,.08-.24.11-.36Zm-64.39,20.2c4-1.43,7,.62,9.8,3.06,4.44,3.92,9.5,3.88,13.11-.43,1.44-1.72.88-3.87.3-5.73s-2.23-.73-3.41-.62c-5.93.53-9.71-2-10.58-7.82a13.85,13.85,0,0,0-3.84-7.33c-2.28-2.55-5-1.92-6.05,1.44-.35,1.2,0,2.12-1.89,1.88-3.38-.45-7.58,4.61-6.8,8,.42,1.81,1.32,3.23.32,5.52-.85,1.91,1.83,3.65,3.94,4.07,1.95.39,4.68,1.63,5.2-2.05ZM143,180l0,0c.86,2.23,1,3.88-2.31,3.47-1.53-.2-3.15.24-3.58,1.95-.56,2.23,1.52,2.72,2.89,3.37,2.22,1.06,5.27,1.19,6.76,2.81A115.57,115.57,0,0,0,163,206c-2.12-.08-4-2.27-6.54-1.11,8.38,10.08,21.26,9.94,26.85-.07-1.51-.85-2.92.26-4.35.19A82.62,82.62,0,0,0,193,192c1.19-1.33,3.46-1.76,5.31-2.41s3.47-1,4.63-2.59c2.51-1.12,2-2.35-.18-2.86-1.82-.41-3.8,0-5.72,0-3.49-1.67,2.23-2.37.35-3.9a9,9,0,0,0-4.84-.23,5.55,5.55,0,0,1-4.8-2.21c-1.56-1.78-2.74-3.7-5.48-3.55-3.33.18-2.76,3.52-3.93,5.38-1.39-.82-1.23-1.91-1.31-2.86-.19-2.19,2.5-5.52-2.53-5.78-.93,0,.22-1.36.25-2.11.05-1.12-.77-2.59-1.4-2.07-2.21,1.82-8.29-4.07-7.38,3.68.11.93-.77.83-1.43.89-2.3.2-1.89,1.64-1.64,3.26.37,2.38.44,4.82.66,7.43-2.64-.93-2.23-3-2.53-4.69-.64-3.62-3-3.26-5.68-2.67-4.07.91.05,3-.68,4.51C150.71,178.3,147,180.75,143,180Zm-9.91,19.61c-.75,1.72-4,2.1-3,4.56,1,2.29,3.51,1.15,5.32,1.64,3.85,1.06,7.68,1.56,10.26,6,1.14,1.93,2.07,4.55,4.12,6.49,4.61,4.38,10.41,3.89,15.71,5.33,7.79,2.13,15-1,22.24-3.28a8.64,8.64,0,0,0,5.26-5.6c.85-2.36,2.12-6.31,3.48-6.43,3.82-.34,6.81-3.76,10.93-2.55a2.67,2.67,0,0,0,3.14-1.92c.44-1.35-.71-2.15-1.74-2.64-1.93-.92-2.6-1.24-.49-3.27,1.7-1.64,1.8-4.84.71-7.29-.59-1.32-2.5-2.56-3.74-1.64-3,2.2-6.72,1.84-9.72,3.61-2.48,1.46-5.28,3.13-4.72,6.39,1.24,7.27-3.78,9.92-8.73,12.66-2.23,1.23-4.08,2.39-5.06,5.06a8.06,8.06,0,0,1-6.66,5.38c-3.15.24-5.76-2.32-6.89-5-1.32-3.12-3.56-4.32-6.2-5.89-3.67-2.18-8.46-4.36-7.76-9.78.67-5.27-2-7.74-6.16-9.46-2.12-.88-4.7-.9-6.57-2.1-2.94-1.9-6.23-.36-5.63,1.48C132.15,194.07,127.05,198.3,133.11,199.59Zm26.43,70.92c.21,1.6.23,3.62,2.07,4.15,2.51.72,1.37-1.39,1.51-2.46.08-.66.52-.8,1-.53a12.77,12.77,0,0,0,12.38.16c1-.47,2.27,2.81,3.37,0,.7-1.8.81-4.21-.53-5.21-5.22-3.89-2.78-7.4-.28-11.43,1.76-2.83,1.78-5.16-1.73-7.89-4.46-3.48-7.77-1.6-11.84-.23-7,2.36-7.33,2.84-3.47,9.54,1.26,2.2,1.7,4.09.1,6.41A14.49,14.49,0,0,0,159.54,270.51Zm15.54-156.95a23.2,23.2,0,0,0-.84-4.85c-.75-1.92-1.41-4.27-4.27-4.12-2.59.14-2.9,2.38-3.72,4.12-2.3,4.87.5,9.42,1.05,14.08.28,2.5,2.5-.07,3.72.71.95.62,2.23.53,2-.9C172.63,119.33,175.71,116.87,175.08,113.56Zm11.27,153.55c1.16-.08,1.28-.75,1.37-1.39.83-5.84.23-11.93,3.13-17.42.46-.89.46-2.07-.87-2.36a2.12,2.12,0,0,0-2.75,1.52,62.37,62.37,0,0,1-4,11.18,4,4,0,0,0,0,1.87C187.8,260.9,185.14,265.11,186.35,267.11ZM208,261.58c2,.28,4.09-.06,5.06.84,2.09,1.94,3.87,1.51,4.83-.41,1.14-2.25.48-5.58-1.35-6.61-2.42-1.36-6.14-3-8.56-.2s2.69,2.73,2.67,5C210,261,208.64,259.65,208,261.58Zm-66.38,60.1c2.93-5.75-.15-10.65-1.4-15.73-.07-.29-2.68-4.75-5.07-.76-.36.61-1.53.72-2,1.32-.29.38-1.19,1.53.13,1.83.67.15,1.49-.49,2.27-.65.08,0,.23.9.52,1.22C139.37,312.48,142.66,316,141.62,321.68Zm-2.28-153.77c-1.61.15-3.52-.22-3.34,2.06.24,3,2.27,4.77,5,5.36,2.24.47,3.58-1.09,3.38-3.16C144.13,169.23,141.74,168.33,139.34,167.91Zm62.11.05c-3.07,0-5.89.89-6.08,4.41-.1,2,2.08,3.24,3.88,3a5.67,5.67,0,0,0,5.19-5.21C204.71,168,203,167.93,201.45,168ZM157.9,82.7c5.2-1.58,10.49-.87,15.74-.89,1.24,0,2.58-.15,2.78-1.48.24-1.57-1.38-1.74-2.41-1.86C168.12,77.77,162.55,78.44,157.9,82.7Zm82,156.13c-.76-2.64-3-2.49-4.33-1.6-2,1.34-3.13,3.81-5.56,4.91-.75.34-.19,1.61.3,2.18.73.85,2.52.73,2.64.28.66-2.46,2.93-1.86,4.25-2.79A9.88,9.88,0,0,0,240,238.83Zm-45.61,7.71c5-7.91,4.94-9-.41-14a1.55,1.55,0,0,0-1.26-.42,1.08,1.08,0,0,0-.59,1.6C193.89,237.65,193.68,242,194.34,246.54ZM170.09,281c1.62-.06,3-.67,3.06-2.46s-1.4-2.44-3-2.5-3.17.17-3.1,2.21C167.12,280,168.52,280.64,170.09,281Zm-67.74-45.31c-1.54.13-2.85-.35-3.49.87-.19.37.27,1.36.71,1.71,2.5,2,5.21,3.75,7.21,6.35a1.38,1.38,0,0,0,2.15-.26,13.48,13.48,0,0,0,.94-2.2C106.4,241,105.5,236.69,102.35,235.67ZM135,300.13a8.75,8.75,0,0,0-.43-1.16c-3,.75-4.38-2.31-6.81-2.74-.93-.16-2.22-.32-2.63.8-.58,1.6.93,1.72,1.92,2.23,1.74.89,4.8-.06,4.76,3.46,0,.46,1.24,1.23,2.06.62S135.13,301.8,135,300.13Zm13.37-68.42c-5.85,7-6.19,9.52-2.28,11.95C146.88,239.63,147.64,235.67,148.39,231.71Zm-29.21,18.64c-6.93,1.91-7,2.05-3.4,7.59C115,253.86,120.21,254.05,119.18,250.35ZM253.81,129.14c-2.22.39-4.62-1.26-6.29,1.1,1.75.57,1.08,3.26,2.42,3.51C253.64,134.46,251.76,130.21,253.81,129.14Zm-166,100.94c-2.47,2.78-1.85,5.36-1.2,7.9a1.68,1.68,0,0,0,1.31.09c3.2-1.81-.55-3.93.21-5.9C88.24,231.79,88,231.26,87.77,230.08ZM178.05,76.76l.18-1.29c-4.07-2.1-8.28,0-12.44.44ZM160.49,224.47c-2.3,2.44-3.43,4-2.71,6.08.26.74,1.48.87,2.16.33C162,229.28,160.45,227.45,160.49,224.47ZM59.66,166.92l.73-9C59,160.89,57.39,163.75,59.66,166.92Zm44.51,123.4c2.08,6.14,2.08,6.14,5.79,6.75C109.25,294.2,107.55,292.22,104.17,290.32Zm160.65-70.89c2.34-2.82,3.13-5.12.77-8.49C264.87,214,263.22,216.15,264.82,219.43Zm2.94,78.15c-.24-3-1.44-4.77-3.81-5.58-.73-.25-1.24.35-1.06,1.12C263.45,295.47,264.65,297.24,267.76,297.58ZM269,205.05c-3.25-2.14-4.89.37-6.87,1.26a1.37,1.37,0,0,0,.05,1.18c2.2,1.57,3.09-1.67,5-1.44C267.61,206.1,268.05,205.62,269,205.05ZM212.29,52.36c1.63.88,3.37-1.26,5,.5.72.78,2-.36,2.14-1.21.25-1.24-1.09-1.5-1.94-1.54A6.13,6.13,0,0,0,212.29,52.36Zm8.24,46c-2.79,2.07-2.68,4-2,6.75C220.81,103.18,221.09,101.3,220.53,98.35Zm48.2-63.77c-3.81,3.54.23,6.9-1.42,9.81C269.59,41.62,269.16,38.52,268.73,34.58ZM75,210.57c-2.5,3.47-1.62,5.42.1,7.81C77.3,215.53,74.63,213.67,75,210.57ZM60.7,101.86c.08-2.5.76-4.28-1.08-6.65C59.23,97.8,58.58,99.47,60.7,101.86ZM172.31,289.35c2.33.29,3.18-.53,2.33-3.12C173.63,287.18,172.4,287.66,172.31,289.35ZM238,23.77c-1.58-1.19-2.67-1.94-4.27-1.1C234.81,24.16,236.06,24.12,238,23.77Zm38.13,165.15h-3.91C273.32,190,274.36,191.29,276.13,188.92ZM89.23,225.33c1.53.78,2.07,2.4,3.7,1.59a2.51,2.51,0,0,0,.8-1.54C92.63,224.54,91.39,224.29,89.23,225.33ZM251,16c-.23.13-.65.3-.64.39,0,.28.21.67.43.75.39.14,1,.28.83-.53C251.58,16.38,251.24,16.21,251,16ZM108.13,246.9l.67-.52c-.21-.16-.44-.47-.63-.46s-.51.3-.77.46Zm12.41-134.21c.13-.07.33-.11.36-.21s0-.3-.07-.45l-.54.29Zm78.13-47.28-.28-.3-.29.29.44.29Zm66.18,144-.32-.37c-.12.11-.32.21-.33.32s.18.24.29.36Zm-189.24.44c.12-.11.33-.21.34-.32s-.19-.24-.3-.36c-.12.11-.33.21-.33.32S75.51,209.77,75.61,209.89Z"/><path class="cls-2" d="M246.76,220.66c-2.68,0-4.35,1.09-3,3.92,2.18,4.4,2.31,4.33-1.74,6.24,0,1.43,2.23.67,2.14,2.15,0,.16-.06.33-.08.49-6.94.28-13.35,1.17-17.89,7.73-2.6,3.77-7.55,5.92-11.84,6.16-4.81.27-5.36,1.64-4,5.45-10.57,1.4-10.57,1.4-10.51,8.16-1.5,1.39-1.9,3.37-2.74,5.12,1,6.69-.93,13.95,3.79,19.94a4.59,4.59,0,0,0,0,.74c-2.15,1.06-1,2.89-.72,4.22a6.46,6.46,0,0,1-3.46,7.61c-2.86,1.54-1.46,3.78-1.6,5.6a6.58,6.58,0,0,1-6.69,6.13c.06-.6.13-1.19.19-1.79h-.35l.17,1.79c-2.27,1.74-4.7,2.39-7.44,1.11-1.82-.86-2.65.15-4.37,5.24-2.48-2.74-5.16-4.67-9.19-3.26a17.17,17.17,0,0,1-4.34.37c-2.34-1.46-4.69-3-7.25-.42-.67.67-1.19.28-1.62-.18-.95-1-1.79-3.09-2.88-.11a.64.64,0,0,1-.41.22,19.22,19.22,0,0,0-7.76-5.17c-.86-.32.16-2.48.08-3.7-.12-1.85,4.26-4.23-.61-5.63-2-.58-1.85-5-5.59-3.24a2.76,2.76,0,0,1-3.36-2.95,8.9,8.9,0,0,0-2.49-5.78c-2.06-2.17.93-3.35,1.46-5a1.29,1.29,0,0,1,2.08-.47c1.9,1.5.85,3.13.11,4.73.58,3,2.82,3,5.15,2.84L140,289c1.49-3.48-3-1-3-3,1.33-.75,2.64-1.52,2.94-3.21a.49.49,0,0,0,.1-.54c5.49-5.54,2.38-11.71,1.31-17.73l-.54-3.6c-.51-3.21.46-7.64-5.5-6.11-.84.22-2-.89-3-1.39l-.59.4.42-.05c3.36,3.41-1.56,3.75-2.12,5.71l-.08.07c-2.25.11-4.94,3.07-6.58.25s.06-5.45,2.94-6.94c1-.51,1.88-1.08,1.41-2.22a3.7,3.7,0,0,0-2.91-2.43c-5.37-.87-8.55-5.07-11.6-8.74a11.73,11.73,0,0,0-7-4.39c-3.08-.74-6.18-1.61-8.76-4.26-2.29-2.35-2.66-3.39-.92-6.41s-2.45-2.64-4-4c1.42,2.79-.94,4.41-2.26,5-2,.86-2.9-1.68-2.61-3,.42-1.92-5.19-6.71,2.4-5.72,1,.13.79-1.58.89-2.51.27-2.63-2.73-4.19-3.55-4.1-6.39.67-4.52-1.85-3-5.58.59-1.48,2-2.51,2.09-4.35-1-1.34-2.85-1.05-4.19-1.88s-3.47.08-4.66-2.11a16.84,16.84,0,0,0,7-6.85c-1.78-1.36-4.26-1-6.69-1.05a4.67,4.67,0,0,1-4.54-3.95c-.35-2.27,2.43-.44,3.35-1.87A10,10,0,0,1,70.89,178c-1-1.58-2.31-2.72-.86-4.65s3.35-3.29,6-2.11c2.16,1,2.4-.13,4-1.65,4.34-4.16,5.69-6.51-1-8.83,1.62-2.89.08-5.72-.07-8.59a15.15,15.15,0,0,0-1.1-4.67c-1.17-3.16,1.78-6.16,2.7-9.84,2.35,2,1.68,4.06,1.68,5.94,0,2.14-.22,4.24,1.48,6.08,1.17,1.28,2.51,2,3.89,1.27s.3-1.91-.15-3c-1.12-2.67,2.86-4.12,1.66-7.17,2.26,4.06,7.2,1.29,9.74,4.48.55.69,4.9-4.69,4.47-6.19a64.61,64.61,0,0,1-2.57-12.14,1.76,1.76,0,0,0-.66-1.27c-6-3.25-5.34-9.13-5.92-14.54,2.67-1.37,2.07-2.77,0-4.18-.64-.49-1.75-.9-1.85-1.48-.72-4.28,5.5-13.53,9.47-14.76,2.53-.78.38,3,2.53,2.25l1.27,1.56c-2.38,3.41,2.35,4.13,2.49,6.58l-1.11.66.28.33L108,101c2.94,7.06,7.23,12.33,15.44,13.81,1.88.33,5,2,5.32,5.17.13,1.06,1.72,1.84.75,3.11s-2.12,1.11-3.39.22c-1.74-1.23-2.38,1.43-3.88,1.24-.45-.28-.8-.22-1,.33l3.45.31H123l-1.36,1.56-1.73.43c-2.35-.81-2.08,1.09-2,2.19.32,3.11-1.28,5.29-3.13,7.43-1.75.45-2.64-3.8-4.84-.88-3.37,4.06-4.8,9-5.82,14-.57,2.77-1.78,3.1-4,2l-.41,0,.25.21c.12,2.83-1.72,3-3.81,2.82-.3-.72-.75-1.75-1.56-1.15s.14,1.31.59,1.89c-2.49,4.78.58,10.24-1.87,15-1.24,2.41-1.08,5.46-3.35,7.42l-.35-.57c0,.12,0,.28,0,.34a1.25,1.25,0,0,0,.41.15c-.14,7.5,4.41,12.91,8.79,18.09,2.19,2.59,1.67,3.69-.4,5.32l-.37,0,.36-.09,4.62.61c1.39,1.36.58,4.22,3.22,4.73.47,1.76,5.67,2.08,1.58,5.22-1.43-.08-2.81-.06-3.58,1.59a5.09,5.09,0,0,0,4.83-.07,22.59,22.59,0,0,1,3-.07c1.52.16,4.53-1.48,4.22-.21-.8,3.25,2.36,7-1.21,9.68-.46.35-1.28.22-1.93.31l-6.31.08a14.34,14.34,0,0,1-6.33-1.85l-1.09.12.51.58c3.36,5.94,8.7,9.05,15.24,9.93,2.8.37,5.52,2.42,8.67.45,1.18-.73,2.13,1.14,2.86,2.23,1.37,2,2.76,4,4.56,6.67.35-2,.56-3.18.77-4.36L132,237c2.19-.41,3.3,1.31,4.73,2.4l.09.08c1.52,3.4.57,7.93,5.11,10,1.29.6,1.07,3,1.14,4.63.07,2.08.69,3.37,2.94,1.68a13.88,13.88,0,0,1,2,10,17.28,17.28,0,0,0-1.24,8.7c.2,3.56.87,7-.68,10.63a6.7,6.7,0,0,0,2.72,8.27c1.71,1.08,2.45,2.07,1.58,4,.06.38.11.77.16,1.15l.64-.51c4.78,3.58,9.54,7.19,16,6.94l1.12-.49c1-.11,2.06-.58,3,.13l.38.2.41-.19a1.35,1.35,0,0,1,.82,0c.41.45.86,1.32,1.22,1.29,1.11-.11.87-1.16.93-1.94a5.85,5.85,0,0,0,7.17-1c2.16-2.28,4.71-2.89,7.42-3.56l.19-.08h-.27c1-2-1.07-5.54,3.05-5.92,1.82-.51,2.12-2,2.3-3.56-.07-4.94-2.86-9.66-1.23-14.74l.1-3.35-.88-4.73c-.24-2.05-.77-3.95-2.64-5.16l.63-3.42,3.93-2.36c.1.22.2.44.31.65.54.82,1.13,1.2,1.9.25.21-3.39-.43-6.76,3.85-8.91,1.7-.85,1.72-4.78,2.86-7.14.78-1.62,1-4.31,3.62-4s.54,3.29,2,4.44l-.19-.17.1.24c1.18-1.79,2.37-3.58,3.54-5.38,1.52-2.34,2.72-3.28,6.39-3.29,5.93,0,13-.41,17-6.7h-.15c2.47,0,3.06-2.22,4.37-3.59.27-.42,1.26-.58.75-1.21s-1.09-.14-1.51.38l-6.41,1.56-5.6,0c-4.33-.07-4.49-2.81-3.88-6.06l.18-.09-.25.21c-.2-3.66.82-5.61,5-3.86,1,.42,2.3,0,3.43.22,4,.67,3-3.31,2.4-3.79-4.24-3.54,0-5.57,1.58-6.94,3.93-3.32,13-17.49,14.13-22.38.64-2.84-2.23-4.7-1.26-7.36l.1-.23v.31c-3.4-4-4.6-8.42-2.09-13.38l1.27-1.59c.1-.52,0-.9-.64-.67l-3.21.69,1.79-4.07.41-.69-1.14-.16c-4.75,2.41-7.39,1.11-9.24-4.18-1.52-4.36-1.4-9.59-6.14-12.37l0,.14c.27-.57,0-1-.52-1-.25,0-.46.68-.69,1.05l-3,.16-2.7-3.81a6.62,6.62,0,0,0-.39-6.34c-.15-1.13-.75-1.25-1.63-.73-1.17-1.59-2.22-3.33-4.44-3.64-1-.85-1.85-.24-2.61.38a1.9,1.9,0,0,1-2.67-.18c-1.09-.88,0-1.71.15-2.6.6-3.46,4.33-5.22,4.69-8.81.07-.75.58-.41,1,0,4.74,4.75,5.32-.56,7.12-3l.7.6c.95,0,6.28-3.38,6.29-4.28,0-2.36,1.87-3.79,2.65-5.75,2.79-1.93,4.1-4.82,5.12-7.91,1.15.84,1.38,2.73,3.21,2.8,2.48.08,2.73,1.7,2.83,3.73.08,1.63-.11,3.91,2.89,3.13.85-.22,1,.62,1,1.28,0,2.73-3.62,5.43-2.76,6.65,1.81,2.56.38,4,.26,6.19-.39,7.62-6.58,11.26-9.76,16.85l-1.51.77c.74.65,1.35.29,1.93-.27,3.47,1.07,1.7,3.7.87,5-2.82,4.28,2.18,5.19,3,7.83.24.76,1.14-.13,1.51-.53,2.71-2.85,5.53-1.32,8.2-.1,1.5.68,3.93,1.15,2.31,4a1.54,1.54,0,0,0,.92,2.39,2.14,2.14,0,0,0,2.55-1c1.17-1.84,2.29-3.66,1.41-6a1.66,1.66,0,0,1,1.32-2.27,1.64,1.64,0,0,1,1.86,1.8c0,4-.18,8.07-.37,12.1-.08,1.59-2.07,3.19.51,4.69,1.37.79-.2,1.24-.75,1.54-1.73.93-3.52,1.77-5.82,2.91,2,1.37,3.48,2.59,4.15,4.77.81,2.6,2.87,3.25,5.6,2,2.05-.93,4.9-2.44,6.49-.59,1.36,1.59-.57,4.27-1.14,6.38-.89,3.3-3.7,4.88-7.44,5.23,1.46,1.13,3.82,0,3.55,2.59-.18,1.65-1.25,2.19-2.67,2.47-1.12.22-2.2.63-3.33.78a3,3,0,0,0-2.81,2.39c-.32,1.3.51,1.84,1.56,2.63,2.11,1.58,3.53,3.48-.7,4.53-1.06.27-3.85.67-1.93,3.24.21.81.24,1.73-.63,2-3.1,1.11-1.58,2.3-.15,3.55.45,1.28,4.58.74,1.81,3.63-3.83.79-9,.17-7.06,6.9a1.94,1.94,0,0,0-.79,1.92C248.44,219.57,247.13,219.44,246.76,220.66ZM214.33,117.05c0,.13-.14.28-.12.4.1.45.31.48.51.07a.5.5,0,0,0-.05-.41C214.63,117.05,214.45,117.07,214.33,117.05ZM134.71,290l-.17-.33-.19.32Z"/><path class="cls-3" d="M182,143c-7.22-2.58-4-8.78-5-13.66,1.75.09.79,2.36,2.86,2.24-.75-10.44-.26-20.87,3.23-31.31L185,104a6.2,6.2,0,0,1-1,4.06,4.38,4.38,0,0,0,.07,4.06c2.59,1.32,2.85-.71,3-2.31.58-6.36,5.28-10.93,7.12-16.73a1.68,1.68,0,0,1,1.06-.8c2.27-.69,2.43-.73,1.81-2.19-.43-1-1.32-1.88-1-3.14l-.07.1c2.27-.44,3.31-1.77,3-4.09l0,.07a10.53,10.53,0,0,0,3-8.06l0-.06c3.08.21,5.73-.27,6.44-3.93,3.32-2.07,3.56-6.12,5.76-8.92.91,1.85-.74,4,.43,5.95,2.34-1.2,2.6-3.12,2.72-5.1,3.6-1.18,3.48-5.6,6.53-7.44,1.38-.84,2.26-2.25,4.12-1.43,1.74,1.18,2.63,3.71,5.33,3.37,2.69-1.73.56-6.64,4.83-7.32l-.05-.05c-.22,1.58-.45,3.16-.67,4.74,1.64-6.28,8.11-9,10.54-14.57l.7.36-.08-.85c.44-.73-1.12-2.46,1.14-2.28.41.35.68,1.24,1.37.42.08-.09-.46-.7-.71-1.07-.29-3.51-3.7-6.13-2.58-10.22.32-1.18-2.32-2-3.76-2.79-4.16-2.14-8.51-3.66-13.27-3-1.08.16-2.5,1.31-2.9-.18-.52-2,1.57-1.55,2.69-1.88a17.85,17.85,0,0,1,2.43-.4c.59-1.2,1.18-2.4,1.76-3.61A17,17,0,0,1,248,16.24c-.81,3.12,2,2.76,3.5,3.58,3.44,1.83,8.23,1.73,9.44,6.69.44.88,1,1.61,2.11,1.5h0c-.2.94-.1,1.74,1,2l0,.06c-1.16,3.07-.78,6.41-1.84,9.57a4.52,4.52,0,0,0,2.77,5.62c-1.13,1.84-1.1,3.89-1.14,5.94l0-.08-4.88,3.78c-1.16.27-2.42.28-3.29,1.29l-3,7.07c-1.42,1.25-1.89,4.05-4.77,2.9l-1-1c-1.21-.54-.83.55-1.06,1L246,66a33.14,33.14,0,0,0-3.87,4.19c-1.32,2-2.15,4.4-5.26,3.86a2.06,2.06,0,0,0-.81,2.06h.28c-4,1.37-4.22,6.25-8.21,8.23-3,1.48-3,0-4.1-2-1.81,3.75-3.3,7.06-5,10.25-1.13,2.09-1.17,4.77-4.91,5.3-1.62.22-2.69,4.48-4.25,7.36l-1.64-4c-1.11,4.39-2,7.93-2.9,11.47-1.73-3.89-.49-7.8-1.32-11.76-3.88,6.32-1.63,14.52-5.68,21-2.59-1.63-.33-4.21-2-5.63-.91,0-1,.65-1.19,1.28-.88,3.65-.09,7.17-4.76,10.15-4,2.58-6.58,8.61-7.45,14.25l0,0-1,1ZM254,31l-.07.06-1.66-1.37-1.13-.49.7,1ZM256,50l.06.25L256,50l-.51-1.27Z"/><path class="cls-3" d="M127.67,66.16,130,67c1.27,2.09,2.14,5.4,3.92,6,3.56,1.22,4.13,4,5.4,6.59C141.9,84.86,142,91,145.05,96.05l1.63.32c.26,1,.52,2,.74,2.88,1.47-.53-.17-2.33,1.76-2.79,1.71,5.35,3.42,10.67,5.49,17.1,1.47-4.57,1-8,1.34-11.42.2-1.09.41-2.18.76-4.08,4.22,12.09,4.69,23.75,3.5,35.58,2.22,0,1-2.39,2.47-2.77,1.78,9.3,1.45,10.12-4.77,12.12l.06,0c-2.46-3.92-1.58-9.29-6.08-12.51-1.8-1.28-1.46-4.58-.74-7.21-2.3-.62-2.3,3-4.08,1.9-1.59-1-1-3-1.46-4.56-.65-2.32-.46-4.9-2.33-7.42-.06,1.12-.06,1.74-.14,2.36-.23,1.9,1.94,5.09-.94,5.39-2.25.23-1.81-3.38-2.27-5.37-1.06-4.65-2-9.34-3.33-14-1.33,4.09-.75,8.25-.65,12.38l.05-.05c-2.73-4.1-1.91-9.29-3.85-13.62-1.92.34-.76,2.24-2.42,3-2-2.53-2.5-5.79-3.54-8.79s-2-5.93-3.45-10.09c-.66,5.14,2.12,8.54,1.65,13.43-4.17-6.37-6.34-12.69-9.4-19.16-1.12,2.6,1.08,4.62-.39,6.95-1.61-2-3.13-3.79-4.64-5.61l0,.06-.27-.85-.8.86.07-.08c-3-1.49-3.33-5.37-6.25-6.92l.16,0c.17-1-.09-1.79-1.26-1.94-1.35,1.44-2.16.5-3.06-.6C97.14,68.75,95.53,67,94,65.16a15.48,15.48,0,0,0-1.62-6.87c-.09,2.94,1,4.83,1.67,6.82l-.18,1.08-1.11,1c-1.32-1.5-3-1.49-4.83-1.34-2.08-4.05-2-8.48-2-14.35l-1,3.69c-2.74-.26-4.34-1.81-5.24-4.37-.51-1.44-.55-3.33-2.61-3.74-.38-1-2.66-1.36-1.19-3.11,1.87-1.32,3.34-3,2.59-5.39-1.21-3.88-.89-7.89-1.41-11.82,3.34-3.76,8.69-4.68,12-8.49l-.45-1.33.08-.4.4.09c.6.38.79,0,.94-.5,2.66-.59,5-2.45,7.91-2l8.21-.11,0,0c-.84,2.74.93,3.33,3,3.66l3,1.86c-6.89,2-14.53,1.25-19.15,7.61l0,0c-.67-.14-1.56-.1-1.53.62,0,.9,1,.44,1.54.43L93,28c-.32,4.35-3.63,7.79-3.67,12.24,0,3.76,0,3.82,3.65,3,1.54-.34,1.5.93,1.74,1.75.49,1.75.72,3.57,1.27,5.3.39,1.24.74,3,2.25.37,1.09-1.9,1.79,0,2.26.89.89,1.73,1,3.83,2.53,5.3,1.4-.56.35-1.75.71-2.54l.52-.53q1.68,2.2,3.34,4.42c3.6,1.86,2.86-3.27,5.29-3.29.57.93.75,2.74,2,2.49,2-.43.12-2.67,1.5-4,4,3.74,4.18,9.7,7.81,13.59L124,67l1.54,3.15C128.25,69.85,126.34,67.15,127.67,66.16Z"/><path class="cls-2" d="M214.12,176.13l1.22-1.14c.22-.37.45-.73.68-1.1l.37,0-.29,0a2.25,2.25,0,0,1-1.94-2.79c.14-1.65,5.14-1.92,1.31-4.86-.73-.56.68-2,1.21-3,1.68-3.14,2.88-6.34,1.4-9.92-.06-.15-.12-.38-.05-.48,3.7-5.59-1.41-7.14-4.42-9.64.13-1.08.27-2.15.4-3.23-5.49-3.32-13.36-1.18-18.07,5.11-1.79,2.38-3.12,5.09-4.81,7.55s-1.77,2.31-3.11-.41c-.85-1.71-3.56.21-3.87-2.21l-.11.07c.5.55.88.12.92-.28.07-.65-.49-.57-.93-.5.94-5,6.61-4.52,9.07-7.77,1.72-1.76,2.12-4.05,2.61-6.34,1.12-5.18,6.54-10.9,10.86-11.54,1.39-.21,3.2-1,2.74,1.77-1,6-.68,6.4,5.43,7.24h0c.4,3.45,1.67,5.84,5.78,5.69,1.73-.06,2.27,1.42,2.4,3.12a39.16,39.16,0,0,0,1.22,8.68c.76,2.37,3.82,5,5,5.26,4.79,1.13,4.14,3.65,3.2,6.9a12.31,12.31,0,0,0-.15,2.86l-.4-.07.38.08a13.41,13.41,0,0,1,1.18-1.48c3.08,1.93,4.56-.27,6.22-2.85-.86,6,5.43,9.74,3.28,15.69-1.83,5-2.87,10.34-6.21,14.74-1.09,1.43-.54,3.38-1.18,5.14-1.51,4.12-7.18,3.64-7.68,8.39-.11,1.11-3.27.88-5.07,1.13-2.87.39-4.8,1.15-3.83,5.1.59,2.38-.79,5.26-1.39,8.49a16,16,0,0,1-4.66-8.64c.74-1.32,2-2.53.93-4.25-1.27-2.77,0-4.75,2-6.5.67.59,1.36,1,2.2.31l-1.37-1.23c.28-2,2.44-.25,3.16-1.86l-4.12-2.25c2.63-.95,4.88-1.39,6.24-3.26,1.42-.26,2.94-.29,4-2.08-2.61-.37-5.33-.47-5.78-3.72h.05c2.89-.63,6.18-2.09,5.16-5.17s-4.6-2.86-7.55-1.69a8.77,8.77,0,0,0-.86.45c-.44-.33-2.72.72-1-1.16.94-1.05,2.46-1.6,3.72-2.37l1.67-.93,1.16-.73.12-1-.77.32-1.23.63-1.36.59-4.94,1.62A.64.64,0,0,0,214.12,176.13Zm9.3-21.46.2-.27-.29-.05Z"/><path class="cls-3" d="M163,206a115.57,115.57,0,0,1-16.27-14.38c-1.49-1.62-4.54-1.75-6.76-2.81-1.37-.65-3.45-1.14-2.89-3.37.43-1.71,2.05-2.15,3.58-1.95,3.29.41,3.17-1.24,2.31-3.47l0,0c4,.77,7.69-1.68,11.69-.8.73-1.49-3.39-3.6.68-4.51,2.66-.59,5-.95,5.68,2.67.3,1.69-.11,3.76,2.53,4.69-.22-2.61-.29-5.05-.66-7.43-.25-1.62-.66-3.06,1.64-3.26.66-.06,1.54,0,1.43-.89-.91-7.75,5.17-1.86,7.38-3.68.63-.52,1.45.95,1.4,2.07,0,.75-1.18,2.07-.25,2.11,5,.26,2.34,3.59,2.53,5.78.08,1-.08,2,1.31,2.86,1.17-1.86.6-5.2,3.93-5.38,2.74-.15,3.92,1.77,5.48,3.55a5.55,5.55,0,0,0,4.8,2.21,9,9,0,0,1,4.84.23c1.88,1.53-3.84,2.23-.35,3.9,0,.63-.05,1.27-.08,1.9l0,0c2,.43,4.38-1.46,6,1-1.16,1.55-2.92,2-4.63,2.59s-4.12,1.08-5.31,2.41A82.62,82.62,0,0,1,179,205l0,0a3.14,3.14,0,0,0-3.05,2l.06,0H164l.07,0L163,206Zm-4.63-24.35-.76-.32.25.76c.11,2,.7,3.77,3,4.67C161.19,184.36,159.7,183.05,158.39,181.65Zm20.67,6.43c2.24-2.14,4.49-4.27,4.49-7.65-2.83,1.64-3.84,4.41-5,7.12l-.29.81Z"/><path class="cls-2" d="M124.33,201.53c5.15,3.87,4.45,12.41-1.61,17.43-1.23-1.45-.4-3.17-.68-4.68-.51-2.77.09-6.78-5-4.45-.82.38-2.17.41-2.39-1-.17-1.09.74-1.73,2.15-2.44-2.13-1-4.72,0-6-2.08l1.29-1.31c0-.32.08-.64.1-1l.71-.39-1.1-.29c-4.86-1.27-10.73-8.73-10.27-13.52a2.93,2.93,0,0,0-.87-2.52c-3.35-3.93-3.16-8.78-3.37-13.46-.16-3.55,3.73-5.84,3.35-9.7-.09-.89,1.07-.2,1.83.15,2.87,1.33,5.81,2.68,5-2.91-.25-1.84.45-4.09,3.38-3.75.69.09,1.35.32,2-.76,1.86-3.26,2-3.19,3.92.4l.22,0-.27,0c.93-2.66-.89-5.08-.62-7.72.5-4.91,1.39-9.33,8-8.52l-.09-.1,2.07,1.05,1.26,3-1.11,1.11a5.54,5.54,0,0,0-3.3,1.7l-1.67.35c-.83.33-2.39.05-1.51,1.81,1.47,1.59,2.81,3.06,2.3,5.63-.83,4.09,1.16,7.53,2.5,11.29,1,2.91,1.35,6,3.45,8.58.73.9-1.46.8-2,1.55l-.06-.29.17.2c.27,1.85-2.91,1.19-2.35,3.24-3,.15-5.08,3.38-8.39,2.45l-.42,0v.41c-.56,4.57,3,4.41,5.84,5.11l1.53.62L119.63,190c-.28,3.38.1,3.79,4.79,4.94-1.35,1.88-3.3,2-5.09,2.33-1.32,0-2.44.39-2.24,1.94a2.77,2.77,0,0,0,2.31,2.34A32.42,32.42,0,0,0,124.33,201.53Zm-15.51-36.35-.31-.73c-.1.1-.29.22-.27.3a4.33,4.33,0,0,0,.27.71Z"/><path class="cls-2" d="M133.11,199.59c-6.06-1.29-1-5.52-1.87-8.26-.6-1.84,2.69-3.38,5.63-1.48,1.87,1.2,4.45,1.22,6.57,2.1,4.13,1.72,6.83,4.19,6.16,9.46-.7,5.42,4.09,7.6,7.76,9.78,2.64,1.57,4.88,2.77,6.2,5.89,1.13,2.65,3.74,5.21,6.89,5a8.06,8.06,0,0,0,6.66-5.38c1-2.67,2.83-3.83,5.06-5.06,5-2.74,10-5.39,8.73-12.66-.56-3.26,2.24-4.93,4.72-6.39,3-1.77,6.76-1.41,9.72-3.61,1.24-.92,3.15.32,3.74,1.64,1.09,2.45,1,5.65-.71,7.29-2.11,2-1.44,2.35.49,3.27,1,.49,2.18,1.29,1.74,2.64a2.67,2.67,0,0,1-3.14,1.92c-4.12-1.21-7.11,2.21-10.93,2.55-1.36.12-2.63,4.07-3.48,6.43a8.64,8.64,0,0,1-5.26,5.6c-7.21,2.24-14.45,5.41-22.24,3.28-5.3-1.44-11.1-.95-15.71-5.33-2.05-1.94-3-4.56-4.12-6.49-2.58-4.4-6.41-4.9-10.26-6-1.81-.49-4.35.65-5.32-1.64C129.1,201.69,132.36,201.31,133.11,199.59Z"/><path class="cls-3" d="M75.07,78a26.19,26.19,0,0,1-4.44,9.21c-2,2.74-2.92,6.49,1.92,8.42,2,.79,2.54,1.71.68,3.93-1.41,1.7,2.84,5.33,5.89,5.15,3.51-.21,6.66.34,7.9,4.33l0,0c-1.61.08-3.28-.68-5.63.76,6.71,3.6,5.29,11.28,9.18,16.8-3.37-3-7.61-2.14-11.28-3.39l-1.2-1.06c-1.91-2.32-3.55-4.48-7.4-3.32-3.1.94-3.23-1.34-3.81-4.07-.44-2-.86-4.33-1.4-6.48-1-3.78-.42-7.58-.47-11.38q-.37-3.77-.73-7.55,1.07-3.63,2.15-7.27A2.57,2.57,0,0,0,68.06,80l-.08.11L69,79l0,0a4.31,4.31,0,0,1-.8.13c1.79-4.24,5.1-5.55,9.52-4.87.18,2.1-2,2.39-2.77,3.74Z"/><path class="cls-4" d="M159.54,270.51a14.49,14.49,0,0,1,2.61-7.5c1.6-2.32,1.16-4.21-.1-6.41-3.86-6.7-3.51-7.18,3.47-9.54,4.07-1.37,7.38-3.25,11.84.23,3.51,2.73,3.49,5.06,1.73,7.89-2.5,4-4.94,7.54.28,11.43,1.34,1,1.23,3.41.53,5.21-1.1,2.82-2.39-.46-3.37,0a12.77,12.77,0,0,1-12.38-.16c-.51-.27-1-.13-1,.53-.14,1.07,1,3.18-1.51,2.46C159.77,274.13,159.75,272.11,159.54,270.51Z"/><path class="cls-3" d="M266.83,81.21c-.15-2.41-2.38-3-4.18-4.41,3-1.89,5.43-4.79,8,.32.49,1,2.8,1.09,3.15,2s5,2.28.12,3.68c-1.5.43-.35,2.13.32,2.93,4.46,5.35,4.08,11.2,1.71,17.13-1.76,4.4.26,9.73-3.66,13.62-1.63,1.62-2.59,3.78-5.58,3-1.9-.48-2.81,1.34-4,2.51-1.39,1.41-2.89,2.82-5,3-3.76.29-5.48-2.13-4.77-5.92,1.25-6.71,7-9.2,11.51-13,.1-.08.43,0,.47,0,2.21-3.72,6.28-6.91,6.36-11.18.09-4.76,1-10.53-4.52-13.77Z"/><path class="cls-2" d="M136.69,164.2c-.52,3.68-3.25,2.44-5.2,2.05-2.11-.42-4.79-2.16-3.94-4.07,1-2.29.1-3.71-.32-5.52-.78-3.35,3.42-8.41,6.8-8,1.88.24,1.54-.68,1.89-1.88,1-3.36,3.77-4,6.05-1.44a13.85,13.85,0,0,1,3.84,7.33c.87,5.82,4.65,8.35,10.58,7.82,1.18-.11,2.81-1.3,3.41.62s1.14,4-.3,5.73c-3.61,4.31-8.67,4.35-13.11.43-2.76-2.44-5.77-4.49-9.79-3.06l.37-.57c-.07,0-.19.06-.22.12A1.76,1.76,0,0,0,136.69,164.2Z"/><path class="cls-2" d="M200.89,144c10,.78-2.58,5.82,2.17,7.6,1.64.32,2.12-4.85,5.56-1.87,3.2,2.76,6.54,4.85,4.22,10.24-3.23,7.48-3,7.44-10.82,4.54-3.56-1.33-6.81,1.18-8.91,3.9s-4.15,2.79-6.76,1.17a11.8,11.8,0,0,0-3-1.72c-3.51-.86-5.34-2.94-4.41-6.48,1.24-4.71,4.05-.78,6-.63,4.77.37,8.7-2.43,9.72-7.93.73-4,2.4-7.13,6.32-8.73Z"/><path class="cls-2" d="M235.62,279.54c2-1.93,3.72-4.22,6-5.71,2.09-1.37.45-2.58.53-3.85.18-2.81.81-5.42,4-6.16,2.49-.57,4.64-.1,5.1,3.48-1.77.4-4.15-2.8-5.18.55-.51,1.66-.46,3.49,1.19,4.47s4,1.4,5.56-.22,2.61-4,1.32-6.36c-.6-1.12-1.64-2.52-2.73-2.79-7.92-2-2.32-6.92-2.59-10.79.79,5.8,2.8,9.8,9.78,7.9-2.45,4.73-.05,9.51-1.24,14-.35.41-.7.83-1,1.25l-.59-.21.56.19,1-1.29a12.62,12.62,0,0,1,6.48,6.75c-3.84-2.73-7-1.61-10.44.59-3,1.89-3.07,3.85-1.22,6s1.82,3.62,0,5.48a3.7,3.7,0,0,0-.77,4.21c4.11,7.52-.9,14.22-.83,21.35l-1.34,0c-1-5.64-1.9-11.28-2.88-16.91-.23-1.31.46-2.18,1.15-3.14a4.38,4.38,0,0,0-.13-5.57c-1.74-2.17-2.1-3.89.13-6s1.58-3.85-1.15-5.33c-3.28-1.77-6.3-4.56-9.77-.45Zm17.95-3c-.08-.12-.13-.31-.24-.34a1,1,0,0,0-.47.05,3.36,3.36,0,0,0,.32.51S253.43,276.6,253.57,276.52Z"/><path class="cls-2" d="M75.67,281.55c.1-.31.1-.81.31-.92,7.62-4.1,9.43-10.68,8-18.65-.17-.92-.39-1.54,1-1.49,4.87.17,7.35-2.3,7.24-7.79,3.14,6.37,2.94,7-2.39,10-2.83,1.56-3.14,4-2.33,6.84.72,2.51,2.17,4,5.06,3.51,1.85-.32,3-1.23,3.32-3.14.21-1.4.09-2.86-1.39-3.38-1.79-.62-2.72.57-3.25,2.16-.22.65-.66,1.25-1.46.89a1.72,1.72,0,0,1-.77-2.13,4.72,4.72,0,0,1,4.57-3.82c2.93-.22,4.56,1.25,5.56,3.93.85,2.29-1,4.56.18,6.77-.67-.63-1.23-.28-1.78.17L97.12,276l-8.4,1.38c3.67,1.15,6.22.9,8.3-1.47l1-1,1.19-.72c3.1.47,4.44,2.74,5.66,5.69-4.62-3.44-7.28.79-10.5,2.29-2.14,1-1.45,3.07-.55,4.74.54,1,2.15,2.2,1.93,2.74-3.84,9.21,1.54,19.61-4.6,30,.22-8.39-5.19-15-.8-22.39.08-.14.2-.36.14-.47-2.08-4.34-1.79-8.44.09-12.95.81-1.95-7.66-5.53-9.72-4.1-1.51,1-3,2.12-4.47,3.18Z"/><path class="cls-2" d="M154.5,151.62c-.33-.08-.85-.32-.94-.21-4.16,5.17-5.1-.06-6.34-2.22-4.81-8.4-11.39-12.61-21.29-10.06a6,6,0,0,1-2-.19l.09.1c-.67-4.88.79-6.3,5.15-6,2.88.22,3.54-2,3.29-4.61-.15-1.62-3.37-4.1.09-4.7,2.53-.43,6.19.11,7.68,3.3,2,4.26,5.7,7.76,5.78,12.87,1.42,3.63,4.91,4,8,5.06h0c1.22,1.78,3.32,2.88,4,5.09-1.09,0-2.31-.48-3,.9C154.85,151.19,154.67,151.41,154.5,151.62Z"/><path class="cls-2" d="M159,90.05a4.73,4.73,0,0,1,.09-.93l1-.89c5.52-5.27,11.46-5.68,19.08-1.32,1.41,6.44-2.62,11.86-3.34,17.9-3.33-2.13-4.22-5.69-5.35-9.87-1.8,3.4-2.22,6.77-4.49,9.15-2.2-1.1-2.25-3.41-3-5.34C161.94,95.74,161.46,92.44,159,90.05Z"/><path class="cls-2" d="M175.08,113.56c.63,3.31-2.45,5.77-2,9,.19,1.43-1.09,1.52-2,.9-1.22-.78-3.44,1.79-3.72-.71-.55-4.66-3.35-9.21-1.05-14.08.82-1.74,1.13-4,3.72-4.12,2.86-.15,3.52,2.2,4.27,4.12A23.2,23.2,0,0,1,175.08,113.56Z"/><path class="cls-2" d="M184,108.07a6.2,6.2,0,0,0,1-4.06c5.3-8.66,4.58-20,12.31-28.59,1,3.65-.29,5.94-1.34,8.2-.57,1.22-1.54,2.23,0,3.34-.28,1.26.61,2.11,1,3.14.62,1.46.46,1.5-1.81,2.19a1.68,1.68,0,0,0-1.06.8c-1.84,5.8-6.54,10.37-7.12,16.73-.14,1.6-.4,3.63-3,2.31C184,110.78,184,109.42,184,108.07Z"/><path class="cls-3" d="M163.16,313.78a17.17,17.17,0,0,0,4.34-.37c4-1.41,6.71.52,9.19,3.26L177,318l.05,3.5c0,2.48-1.55,3.87-3.22,5.12-2.6-.42,1.44-4.19-2.42-4.09-3.25.07-3.27,2-2.7,5.72-2.63-3.27-5.68-4.28-5.78-7.74,0-1,0-2,0-3Zm3.1,8.4c0-.14.15-.3.12-.41s-.24-.15-.36-.22l-.18.66Z"/><path class="cls-2" d="M156,102.14c-.3,3.38.13,6.85-1.34,11.42-2.07-6.43-3.78-11.75-5.49-17.1-1.93.46-.29,2.26-1.76,2.79-.22-.87-.48-1.88-.74-2.88-.56-6.89-3.13-13.37-4-20.25,6.33,5.9,8.57,13.55,9.58,21.75,0,1.28-.21,2.64,1,3.72.92-1.36,0-2.48-.36-3.64L153.1,96c1.77.18,1.36,1.7,1.73,2.67C155.26,99.81,154.64,101.3,156,102.14Z"/><path class="cls-3" d="M193.1,141.61c-2.46,3.25-8.13,2.74-9.07,7.77a4.07,4.07,0,0,1,0,.78l.11-.07c-3.08,1.08-4.37,3.91-6.16,6.26-.76,1-1.37,2.81-2.9,2.13-1.72-.78-.86-2.59-.6-4,.63-3.31,3.64-5,5.21-7.75.74-1.26,2.18-2.08,2.31-3.73l0,0,1-1,0,0c3,1,4.49-.14,5.29-3.21.49-1.87.72-5.18,3.44-4.7,3,.52,1.25,3.53,1.38,5.5C193.13,140.28,193.09,141,193.1,141.61Z"/><path class="cls-2" d="M94,65.16c1.56,1.81,3.17,3.59,4.68,5.44.9,1.1,1.71,2,3.06.6.25.75.34,1.61,1.26,1.94l-.16,0c1.46,3.73,1.41,8,4.36,11.23a2.1,2.1,0,0,1,.09,3.13c-.8.67-2.45.75-2.73.09-1.27-2.91-6.18-2.25-6.1-6.42,0-.5-1.21-1-1.86-1.51l.62-.74c0-4.52-3.15-8.21-3.35-12.68L94,65.11Z"/><path class="cls-2" d="M145.05,96.05C142,91,141.9,84.86,139.31,79.62,138,77,137.47,74.25,133.91,73c-1.78-.6-2.65-3.91-3.92-6,1-3.45-2.08-6.15-1.27-9.72A75.08,75.08,0,0,1,145.05,96.05Z"/><path class="cls-2" d="M234.6,14.74c-.58,1.21-1.17,2.41-1.76,3.61a50.87,50.87,0,0,0-14.2-.68c-3.55.27-6.85-.22-9.68-2.57l0-1.22c6.82-3.82,14.09.69,21-1.14.86,1.76,2.45,1.22,3.87,1.25Z"/><path class="cls-2" d="M236.9,74.06c3.11.54,3.94-1.85,5.26-3.86A33.14,33.14,0,0,1,246,66c.53,4.44-1.9,8.12-3.14,12.1L243,78l-1.29.35,1.14.6.89.79c-2.32,1.32-2.73,3.12-1,5.15.51.6,1.47.93.86,1.84a1.35,1.35,0,0,1-2.14.19c-1.81-2-4.41-.87-6.45-1.83a4,4,0,0,0-.84-.06,22.72,22.72,0,0,0,2.21-8.9h-.28C237.14,75.74,237,74.88,236.9,74.06Z"/><path class="cls-2" d="M71.59,162.37c-.9-2.69-5.76-5-.85-8.3.22-.14.15-1,0-1.42-2.75-6.31.47-11.35,3.4-16.49.4-.71,2-1.59,0-2.51-.67-.32-2.17-.82-.93-2.13.93-1,2.19-.52,3.31-.48,1.32.05,1,.82,1.21,1.93.75,5.23-2.5,8.93-4.57,13-1,2-2,3.89-1,5.95,1.59,3.29,2.17,6.46.2,9.76Z"/><path class="cls-3" d="M179,205c1.43.07,2.84-1,4.35-.19-5.59,10-18.47,10.15-26.85.07,2.58-1.16,4.42,1,6.54,1.11l0,0,1.05,1-.07,0c4,3.1,8,3.65,12.07,0l-.06,0a4.32,4.32,0,0,0,3.05-2Z"/><path class="cls-3" d="M189.13,288.05c-1.28,5.26-4.24,8.48-9.73,10.1a31.19,31.19,0,0,1-22.71-1.76c-3.26-1.5-4.26-4.69-5-7.92,1.68-.69,2.26.28,2.77,1.06,7.51,11.39,23.63,11.51,31.56.2a5.11,5.11,0,0,1,2.66-2.14Z"/><path class="cls-3" d="M186.35,267.11c-1.21-2,1.45-6.21-3.18-6.6a4,4,0,0,1,0-1.87,62.37,62.37,0,0,0,4-11.18,2.12,2.12,0,0,1,2.75-1.52c1.33.29,1.33,1.47.87,2.36-2.9,5.49-2.3,11.58-3.13,17.42C187.63,266.36,187.51,267,186.35,267.11Z"/><path class="cls-2" d="M114,224a25.27,25.27,0,0,0,10.43-2.94c.91-.43,2.11-.75,2.65.29s-.41,1.92-1.33,2.3c-2.55,1.07-5.16,2-7.75,3,4,1.18,7.49-2.2,11.61-1.79-3.32,5.38-15.81,5.9-22.59,1.16C109.4,225.38,112.22,226.41,114,224Z"/><path class="cls-3" d="M136.68,239.44c.62-3.09-1.36-5.33-2.68-7.72-.88-1.61-2.48-2.91,0-4.45s4.09-.57,5.3,1.59c.7,1.24.85,3.69,2.4.41.27-.57,1.69,0,1.87.92.31,1.5,1.24,4.22-.63,4.21-3.93,0-4.15,3.41-6.16,5.11C136.77,239.52,136.68,239.44,136.68,239.44Z"/><path class="cls-2" d="M208,261.58c.64-1.93,2-.61,2.65-1.39,0-2.26-5.09-2.22-2.67-5s6.14-1.16,8.56.2c1.83,1,2.49,4.36,1.35,6.61-1,1.92-2.74,2.35-4.83.41C212.09,261.52,210,261.86,208,261.58Z"/><path class="cls-2" d="M141.62,321.68c1-5.65-2.25-9.2-5.52-12.77-.29-.32-.44-1.23-.52-1.22-.78.16-1.6.8-2.27.65-1.32-.3-.42-1.45-.13-1.83.44-.6,1.61-.71,2-1.32,2.39-4,5,.47,5.07.76C141.47,311,144.55,315.93,141.62,321.68Z"/><path class="cls-3" d="M150,245c2.26,1,3.87,2.41,4,5.08a4.4,4.4,0,0,0,.63,2.39c3.79,4.83,1.76,9.36-.68,14.26-1.65-1.78-1.29-4-1.34-5.72-.16-5.49-2.82-10.54-2.58-16.06Z"/><path class="cls-2" d="M208.27,71c-.71,3.66-3.36,4.14-6.44,3.93.94-6,4.6-10.76,7.58-15.81.42-.72,1.2-1.39,2-1,1.18.6.56,1.7.27,2.58C210.59,64.15,209.42,67.57,208.27,71Z"/><path class="cls-4" d="M139.34,167.91c2.4.42,4.79,1.32,5.07,4.26.2,2.07-1.14,3.63-3.38,3.16-2.76-.59-4.79-2.34-5-5.36C135.82,167.69,137.73,168.06,139.34,167.91Z"/><path class="cls-2" d="M201.32,304.39c.28.55.69,1.59,1.25.71s.51-2.58,2.14-1.15c.82.72,2.07,2.06.84,2.86-1.58,1-1.05,3-2.6,4-3.76,2.59-5,6.13-2.71,10.47.51,1,1.34,2.4-.47,2.72-1.26.22-2-1.13-2.06-2.35-.08-4.83-.85-9.78,2.1-14.19a32.16,32.16,0,0,0,1.6-3Z"/><path class="cls-4" d="M201.45,168c1.56,0,3.26,0,3,2.21a5.67,5.67,0,0,1-5.19,5.21c-1.8.23-4-1-3.88-3C195.56,168.85,198.38,168,201.45,168Z"/><path class="cls-3" d="M158,150.08c-.68-2.21-2.78-3.31-4-5.09.85-1.65,2-2.59,4-2l-.06,0c1.83,2.33,3.58,4.71,5.5,6.95a10.08,10.08,0,0,1,2.47,5.83c.07.82,0,1.72-.9,2.08s-1.61-.25-2.11-.93C161.27,154.66,159.66,152.37,158,150.08Z"/><path class="cls-2" d="M267.5,139.51c3.12,3.81,4.19,8,2.52,12.79-.38,1.08.6,1.68,1.29,2.42a2.41,2.41,0,0,1-.67,3.82c-1.43.89-3.42,1.75-4.91,1.43s-.32-1.78.24-2.71c1.54-2.56,4.09-6.29,2.5-8-2.61-2.9-1.38-5.69-1.88-8.49Z"/><path class="cls-2" d="M179.47,234.26c-.34.94-1.17,2.44-1.91,1.29-3.51-5.45-5.88-1.73-8.78.82-2.27-2.32-4.19-4.73-1.4-8.14,3.72,4.62,5.45,4.53,9.4-.47,1.15.7,1.11,1.93,1.34,3.05A3.59,3.59,0,0,0,179.47,234.26Z"/><path class="cls-2" d="M157.9,82.7c4.65-4.26,10.22-4.93,16.11-4.23,1,.12,2.65.29,2.41,1.86-.2,1.33-1.54,1.48-2.78,1.48C168.39,81.83,163.1,81.12,157.9,82.7Z"/><path class="cls-2" d="M77.05,47.07c2.06.41,2.1,2.3,2.61,3.74.9,2.56,2.5,4.11,5.24,4.37,0,2-.1,4,0,6,.15,2.2-.8,3-2.89,2.81L79.93,61C80.34,56.1,76,52.15,77.05,47.07Z"/><path class="cls-2" d="M77,26.75c.52,3.93.2,7.94,1.41,11.82.75,2.38-.72,4.07-2.59,5.39C71.71,36.64,72,32,77,26.75Z"/><path class="cls-3" d="M175.87,104.81c.72-6,4.75-11.46,3.34-17.9,4,2.21,5,5.17,2.65,9.32a29.9,29.9,0,0,0-3.43,8.64C177.61,108.79,176.71,105.79,175.87,104.81Z"/><path class="cls-3" d="M216.9,179.71a8.77,8.77,0,0,1,.86-.45c3-1.17,6.56-1.31,7.55,1.69s-2.27,4.54-5.16,5.17c-.7-.67-1.32-1.77-2.12-1.93C214.21,183.47,215.83,181.56,216.9,179.71Z"/><path class="cls-3" d="M159,90.05c2.45,2.39,2.93,5.69,4.05,8.7.72,1.93.77,4.24,3,5.34-2.16,2.59-3.53,3-4.53-1-.74-3-2.4-5.71-3.59-8.57C157.21,92.8,156.52,91,159,90.05Z"/><path class="cls-3" d="M115.34,180.66c3.3.93,5.39-2.3,8.38-2.45a3.94,3.94,0,0,1,3.14,1c-2.11.76-1.61,3.53-3.33,4.45-1.19.64-2.29,1.2-2.79,2.53-2.82-.7-6.4-.54-5.84-5.11Z"/><path class="cls-3" d="M154,145c-3.05-1.06-6.54-1.43-8-5.06,1.9-1.65-.36-6.05,2.74-6s2.59,4.11,3.66,6.4A40,40,0,0,1,154,145Z"/><path class="cls-2" d="M240,238.83a9.88,9.88,0,0,1-2.7,3c-1.32.93-3.59.33-4.25,2.79-.12.45-1.91.57-2.64-.28-.49-.57-1.05-1.84-.3-2.18,2.43-1.1,3.55-3.57,5.56-4.91C237,236.34,239.19,236.19,240,238.83Z"/><path class="cls-2" d="M109.16,17.62c-2.07-.33-3.84-.92-3-3.66l16.76,1.26-.15,2.51Z"/><path class="cls-3" d="M250,217c-2-6.73,3.23-6.11,7.06-6.9,0,.27-.08.53-.13.8,2.83,4.06-3,2.35-3,4.51C252.92,216.69,251.44,216.8,250,217Z"/><path class="cls-3" d="M148,265.88a13.88,13.88,0,0,0-2-10c2.34-2.72,3.25-.88,3.92,1.29a23.43,23.43,0,0,1,.4,13.6l-.4.34Q148.94,268.47,148,265.88Z"/><path class="cls-2" d="M194.34,246.54c-.66-4.58-.45-8.89-2.26-12.79a1.08,1.08,0,0,1,.59-1.6,1.55,1.55,0,0,1,1.26.42C199.28,237.53,199.33,238.63,194.34,246.54Z"/><path class="cls-3" d="M170.09,281c-1.57-.34-3-1-3-2.75-.07-2,1.56-2.27,3.1-2.21s3.07.58,3,2.5S171.71,280.92,170.09,281Z"/><path class="cls-2" d="M248,66.13c2.88,1.15,3.35-1.65,4.77-2.9,1.19,4-1.16,7.28-1.92,10.9L251,74c-.93-.06-1.77.06-2.14,1.11L249,75c-2,.13-2.57-.87-2.2-2.69C247.24,70.25,247.63,68.19,248,66.13Z"/><path class="cls-2" d="M87.9,65.84c1.78-.15,3.51-.16,4.83,1.34.38,2.38.76,4.77,1.15,7.2C88.94,73.79,87.93,72.29,87.9,65.84Z"/><path class="cls-2" d="M217.18,62.92c-.12,2-.38,3.9-2.72,5.1-1.17-1.94.48-4.1-.43-5.95,1.41-2.93,1.92-6.53,5.89-8.07C220.34,57.63,217.9,60,217.18,62.92Z"/><path class="cls-2" d="M248,16.24a17,17,0,0,0-13.38-1.5l-.72-.75a3.87,3.87,0,0,0,.12-.68c3.59-2.47,12.56-1.61,15.46,1.49C250,15.41,250,15.41,248,16.24Z"/><path class="cls-2" d="M274.69,163.56c-.49.43-1.16.77-1.45,1.32-2.59,5-7.23,1.52-10.7,2.91,2.94-3.62,6.55-5.49,11.17-5Z"/><path class="cls-2" d="M112.89,55c-2.43,0-1.69,5.15-5.29,3.29a12.11,12.11,0,0,1-.48-2.93c.15-1.67-1.21-4.42,1-4.78C110.62,50.13,112.89,51.75,112.89,55Z"/><path class="cls-2" d="M226,227c-4.35-.15-8.27-1.74-12-3.77-1-.52-2.37-1.31-1.73-2.59s2-.42,3,.06c3.43,1.65,6.89,3.19,10.79,3.31Z"/><path class="cls-2" d="M127.67,66.16c-1.33,1,.58,3.69-2.1,4-.49-1.06-.35-2.43-1.54-3.15l.13.06c.26-2.28-.89-4.18-1.66-6.18-.4-1.05-.45-2,.68-2.53s1.84.28,2.2,1.26C126.18,61.76,126.91,64,127.67,66.16Z"/><path class="cls-2" d="M102.35,235.67c3.15,1,4.05,5.34,7.52,6.47a13.48,13.48,0,0,1-.94,2.2,1.38,1.38,0,0,1-2.15.26c-2-2.6-4.71-4.35-7.21-6.35-.44-.35-.9-1.34-.71-1.71C99.5,235.32,100.81,235.8,102.35,235.67Z"/><path class="cls-2" d="M68.75,165.29c-1.88-.63-4.77-.72-5.44-2a10.93,10.93,0,0,1-.34-9.7,39.68,39.68,0,0,0,6.3,11.14Z"/><path class="cls-2" d="M135,300.13c.11,1.67-.31,2.61-1.13,3.21s-2.07-.16-2.06-.62c0-3.52-3-2.57-4.76-3.46-1-.51-2.5-.63-1.92-2.23.41-1.12,1.7-1,2.63-.8,2.43.43,3.84,3.49,6.81,2.74A8.75,8.75,0,0,1,135,300.13Z"/><path class="cls-3" d="M226,227l0-3,1.7-.76,5.6,0c1.43.46,2.71,1.08,2.8,2.86h.15c-2.41.17-4.91.33-6.95,1.65C227.61,228.84,227,227.46,226,227Z"/><path class="cls-3" d="M202.19,235.63c-3.63-2.13-1.95-4.77-.5-7.15,1.36-2.21,3.27-2.68,5.3-.62l-3.38,5.25c-.5.77-1,1.53-1.52,2.29Z"/><path class="cls-2" d="M206.49,222.17,221.8,228c-6.22.91-11.79,0-16.18-4.62Z"/><path class="cls-3" d="M220.1,186.13c.45,3.25,3.17,3.35,5.78,3.72-1,1.79-2.57,1.82-4,2.08a16.46,16.46,0,0,0-2.18-1c-1.51-.46-3.77-.41-3.71-2.42C216.07,186.26,218.28,186.2,220.1,186.13Z"/><path class="cls-2" d="M265.05,45.23a4.52,4.52,0,0,1-2.77-5.62c1.06-3.16.68-6.5,1.84-9.57C268.37,34.86,267.2,40,265.05,45.23Z"/><path class="cls-2" d="M255.79,56.16c.87-1,2.13-1,3.29-1.29,1.77,4.12,1.16,6.27-3.75,11.78C255.5,62.67,255.65,59.42,255.79,56.16Z"/><path class="cls-2" d="M202.86,266.08a25.34,25.34,0,0,1,2.06,9.15c.07,1.09.52,2.43-.64,3.19a1.89,1.89,0,0,1-1.7-.53c-.74-1-2.06-2.57-1.15-3.46,2.54-2.5.77-5,.52-7.46Z"/><path class="cls-2" d="M105.45,10.29c6.29,1.6,12.84,1.53,19.19,3-6.65,1-13.11-.78-19.66-1.23l.13.13a3.12,3.12,0,0,0-.22-.9Z"/><path class="cls-3" d="M124.33,201.53a32.42,32.42,0,0,1-4.93,0,2.77,2.77,0,0,1-2.31-2.34c-.2-1.55.92-1.95,2.24-1.94C121.4,198.18,124.84,197.56,124.33,201.53Z"/><path class="cls-2" d="M148.39,231.71c-.75,4-1.51,7.92-2.28,11.95C142.2,241.23,142.54,238.68,148.39,231.71Z"/><path class="cls-2" d="M167.27,291.74c-2.6-.93-5.48-1.33-7.28-3.8l-1-2.2a51.25,51.25,0,0,1,6.19,1.35c2.25.75,3.71,2.16,1.94,4.73Z"/><path class="cls-3" d="M216.68,122.66c2.22.31,3.27,2,4.44,3.64l-1.21,3.62c-2.12-.16-.56-2.64-2.55-2.89l-2.61,5.71h0C215,129.31,214.39,125.71,216.68,122.66Z"/><path class="cls-2" d="M151.84,281.1c-.93-.87-2.18-1.58-2.7-2.66s0-2.79,1.59-1.8c2.56,1.59,5.05,2.91,8.14,3a1.28,1.28,0,0,1,1,1.83,1.87,1.87,0,0,1-1.6.66c-1.77-.27-3.51-.74-5.26-1.13Z"/><path class="cls-2" d="M63.67,187.3a10.87,10.87,0,0,1,9.12,1.81c-5.35,3.14-5.35,3.14-9.89-1Z"/><path class="cls-3" d="M190.26,261.9c1.87,1.21,2.4,3.11,2.64,5.16-1,.81-.66,2.59-2.53,3C189.58,267.33,188.14,264.7,190.26,261.9Z"/><path class="cls-2" d="M176.54,292.47c1.5-1.93-2.11-4.52,1-6.5,1.3-.83,1.76-1.67,2.92-.05.85,1.18,2.35,2.08.62,3.62-1.33,1.18-2.67,2.34-4,3.51Z"/><path class="cls-3" d="M239.08,91.13c-1,3.09-2.33,6-5.12,7.91L232,97l1.36-1.12.36,0,1.24,0C235.3,93.4,234.94,90.31,239.08,91.13Z"/><path class="cls-2" d="M119.18,250.35c1,3.7-4.23,3.51-3.4,7.59C112.16,252.4,112.25,252.26,119.18,250.35Z"/><path class="cls-2" d="M64.32,89.31q.36,3.78.73,7.55c-1.09.94-.34,2.92-2.24,3.91C61.31,96.45,62.23,92.81,64.32,89.31Z"/><path class="cls-2" d="M135.27,13.43c-1-2.85-3,.8-4.64-1.15,2.4-1.08,4.68-2.29,7.09-3.13,1.46-.5,1.62.86,1.31,1.82a6.33,6.33,0,0,1-2.9,3.25Z"/><path class="cls-2" d="M72.37,161.7l5.45,6.19c-3.24.16-6.49.11-9.07-2.6l.52-.55c1.07-.5,2.68-.47,2.32-2.37Z"/><path class="cls-3" d="M255.26,206.49c-1.43-1.25-2.95-2.44.15-3.55.87-.31.84-1.23.63-2l6.15,1.46C260.42,205.18,256.21,203.21,255.26,206.49Z"/><path class="cls-3" d="M110,135.91c2.2-2.92,3.09,1.33,4.84.88A13.24,13.24,0,0,1,114,139c-.69,1.14-.9,3.25-2.85,2.6-1.62-.54-.56-2.22-.65-3.41A17.07,17.07,0,0,0,110,135.91Z"/><path class="cls-2" d="M98.07,12c-2.49-.45-4.8.9-7.3.6,4.69-2,9.33-4.27,14.68-2.3-.19.32-.37.64-.56,1-2.35,0-4.83-1.05-6.94.89Z"/><path class="cls-3" d="M202.86,266.08,202,267l-4.82-.89c.84-1.75,1.24-3.73,2.74-5.12C202,262,203.43,263.45,202.86,266.08Z"/><path class="cls-3" d="M94.19,106.92c2,1.41,2.64,2.81,0,4.18-1.45-.32-3.73.19-3.74-2S93,107.92,94.19,106.92Z"/><path class="cls-2" d="M253.81,129.14c-2.05,1.07-.17,5.32-3.87,4.61-1.34-.25-.67-2.94-2.42-3.51C249.19,127.88,251.59,129.53,253.81,129.14Z"/><path class="cls-3" d="M225.84,137.18l3-.16,1.21-.07,0-.14c.2,2.06.39,4.12.64,6.72C227.27,142.2,226.76,139.54,225.84,137.18Z"/><path class="cls-2" d="M266.78,81.16c1.4,4.85,2.87,9.69,1.46,14.82a1.08,1.08,0,0,0-.08.73c-2.14-1.33-.9-3.28-.89-5a29.2,29.2,0,0,0-2.09-10.2l.91-.64a5.33,5.33,0,0,0,.74.32Z"/><path class="cls-3" d="M209,13.88l0,1.22c-1.88-1.54-5.53.41-6.73-4.12C204.63,12.9,208.09,9.31,209,13.88Z"/><path class="cls-2" d="M87.77,230.08c.2,1.18.47,1.71.32,2.09-.76,2,3,4.09-.21,5.9a1.68,1.68,0,0,1-1.31-.09C85.92,235.44,85.3,232.86,87.77,230.08Z"/><path class="cls-2" d="M178.05,76.76l-12.26-.85c4.16-.46,8.37-2.54,12.44-.44Z"/><path class="cls-2" d="M160.49,224.47c0,3,1.46,4.81-.55,6.41-.68.54-1.9.41-2.16-.33C157.06,228.49,158.19,226.91,160.49,224.47Z"/><path class="cls-2" d="M224.75,94.75v7.5c-3.47-3.36-3.42-4.64.1-7.38Z"/><path class="cls-2" d="M233.16,57.42c-2.7.34-3.59-2.19-5.33-3.37a3.54,3.54,0,0,1,4.42-3.36c2,.44.8,2.79,1,4.29A13.37,13.37,0,0,1,233.16,57.42Z"/><path class="cls-3" d="M159,285.74l1,2.2c0,.65.2,1.47-.11,1.92-.93,1.36-1.22-.12-1.61-.56-.65-.72-1.08-1.64-1.75-2.35-1-1-1.11-2.24,0-2.95C158.32,282.85,158.54,284.61,159,285.74Z"/><path class="cls-2" d="M177.05,321.49,177,318c3.38-2.68,4.89.38,6.79,2.23l-.94.86C181,322.92,178.81,318.83,177.05,321.49Z"/><path class="cls-2" d="M253.93,215.43c0-2.16,5.84-.45,3-4.51,1.28.1,3-.52,3.67.75a4.87,4.87,0,0,1,.3,3.72c-.43,1.09-1.69.24-2.59-.08A7.81,7.81,0,0,0,253.93,215.43Z"/><path class="cls-2" d="M224.85,94.87c.51-1.31,1.21-2.65,2.83-1.64,2.33,1.46,1,3.8,1.45,6.17-2.87-.75-2.37-3.85-4.38-4.64Z"/><path class="cls-3" d="M114,224c-1.82,2.42-4.64,1.39-7,2l-.19-2.8,6.31-.08Z"/><path class="cls-3" d="M194.82,256.12l-3.93,2.36c-.34-2-.32-4.12,1.82-4.84C194.18,253.14,194.71,254.75,194.82,256.12Z"/><path class="cls-2" d="M136.51,261c.41,1.4,1.77.81,2.64,1.26,0,.95,0,1.89,0,2.84-.42,1-.84,2.08-1.58,3.88-.57-3.26-5.46-4.12-2.51-7.94Z"/><path class="cls-2" d="M79.49,291.33c-.95,2.71-1.56,5.7-5.49,6.22-.2-3.74,2.58-5.13,4.75-6.93Z"/><path class="cls-3" d="M201,286.76a4.59,4.59,0,0,1,0-.74c1.34,0,1.9.8,2.07,2,.59,1.56,1,3.25,3.17,3.34,0,.44,0,.87,0,1.31l-2.73.27C200.79,291.61,202.24,288.64,201,286.76Z"/><path class="cls-2" d="M59.66,166.92c-2.27-3.17-.63-6,.73-9Z"/><path class="cls-2" d="M104.17,290.32c3.38,1.9,5.08,3.88,5.79,6.75C106.25,296.46,106.25,296.46,104.17,290.32Z"/><path class="cls-2" d="M264.82,219.43c-1.6-3.28.05-5.47.77-8.49C268,214.31,267.16,216.61,264.82,219.43Z"/><path class="cls-2" d="M163,317.47c0,1,0,2,0,3-.64,0-1.56-.22-1.86.1-1.38,1.51-3,1.07-3.75-.12-.92-1.56,1.21-1.92,2-2.79.44-.47.86-.94,1.28-1.38.42.26.86.48,1.29.71Z"/><path class="cls-2" d="M273.71,162.8c-.8-3.42,2.56-4.45,3.88-6.79,1.41,3.51.39,6-2.9,7.55Z"/><path class="cls-2" d="M267.76,297.58c-3.11-.34-4.31-2.11-4.87-4.46-.18-.77.33-1.37,1.06-1.12C266.32,292.81,267.52,294.59,267.76,297.58Z"/><path class="cls-3" d="M246.76,220.66c.37-1.22,1.68-1.09,2.46-1.72,1.37.06,3.2.48,2.23,2C250.23,222.94,248.32,221.33,246.76,220.66Z"/><path class="cls-2" d="M86.29,97.06c1-2,2.63-1.72,3.89-.62a1.41,1.41,0,0,1-.81,2.33c-1.21.21-3.68,1.63-3-1.75Z"/><path class="cls-2" d="M269,205.05c-1,.57-1.43,1-1.81,1-1.92-.23-2.81,3-5,1.44a1.37,1.37,0,0,1-.05-1.18C264.15,205.42,265.79,202.91,269,205.05Z"/><path class="cls-2" d="M212.29,52.36a6.13,6.13,0,0,1,5.2-2.25c.85,0,2.19.3,1.94,1.54-.16.85-1.42,2-2.14,1.21C215.66,51.1,213.92,53.24,212.29,52.36Z"/><path class="cls-2" d="M266.59,140.72c-.61.93-1.32,2.55-2.41.77a4.74,4.74,0,0,1,.29-5.19c.51-.69,1.92-.39,2.39.8a21.91,21.91,0,0,1,.64,2.41Z"/><path class="cls-2" d="M220.53,98.35c.56,3,.28,4.83-2,6.75C217.85,102.38,217.74,100.42,220.53,98.35Z"/><path class="cls-2" d="M236.92,292.26a2.52,2.52,0,0,1-.24.42c-1,1.54-1.14,3.87-3.51,4.27-.35.06-1.12-.37-1.13-.6-.13-2.51,1.76-3.63,3.48-4.87Z"/><path class="cls-2" d="M106.13,14l-8.21.11.15-2.1-.12.14h7.16L105,12Z"/><path class="cls-3" d="M119.63,190l2.64-3.12c1.18.29,2.5.76,1.68,2.23C123,190.77,121.28,190.62,119.63,190Z"/><path class="cls-2" d="M203,187c-1.64-2.49-4-.6-6-1l0,0c0-.63.06-1.27.08-1.9,1.92,0,3.9-.38,5.72,0C205,184.64,205.49,185.87,203,187Z"/><path class="cls-2" d="M183.79,320.22c1.73,0,1.16-4,3.75-2.22,1,.69,1.11,1.91,0,3-1.57,1.46-3,2.81-4.67.12Z"/><path class="cls-2" d="M268.73,34.58c.43,3.94.86,7-1.42,9.81C269,41.48,264.92,38.12,268.73,34.58Z"/><path class="cls-2" d="M203.61,233.11l3.38-5.25C208.65,230.46,207.1,232.87,203.61,233.11Z"/><path class="cls-2" d="M62.9,188.16c-2.78-.38-5-1.31-4.59-4.81,2.93,0,3.68,2.6,5.36,4Z"/><path class="cls-2" d="M75,210.57c-.34,3.1,2.33,5,.1,7.81C73.35,216,72.47,214,75,210.57Z"/><path class="cls-2" d="M60.7,101.86c-2.12-2.39-1.47-4.06-1.08-6.65C61.46,97.58,60.78,99.36,60.7,101.86Z"/><path class="cls-3" d="M216,173.89c-.23.37-.46.73-.68,1.1-1.46-.24-3.67.92-4.11-1.2-.31-1.45,1.3-2.42,2.93-2.6A2.25,2.25,0,0,0,216.1,174Z"/><path class="cls-3" d="M79.93,61,82,63.94c-1.14,1.67-2.05.6-2.57-.41C79.1,62.8,77.57,61.42,79.93,61Z"/><path class="cls-2" d="M86.38,97l-3.53-2.23c1.25.6,1.76,2.23,3.44,2.27Z"/><path class="cls-2" d="M206.16,291.37c-2.14-.09-2.58-1.78-3.17-3.34,1.42.26,2.88.44,4.27.83a1.54,1.54,0,0,1,1.05,2.3C207.82,292.16,206.91,291.48,206.16,291.37Z"/><path class="cls-3" d="M222.75,127a6.62,6.62,0,0,1,.39,6.34C221.67,131.34,221.79,129.21,222.75,127Z"/><path class="cls-3" d="M106.31,206.66c-2.64-.51-1.83-3.37-3.22-4.73,1.87.67,4.27.91,3.24,3.95,0,0,0-.12,0-.12A2,2,0,0,1,106.31,206.66Z"/><path class="cls-2" d="M223.75,253.19c-2-.28-1.19,1.93-2.63,2.87.11-2.18-1.9-4.4.52-5.77,1.78-1,2.78,1,3.46,2.5Z"/><path class="cls-2" d="M201.85,75a10.53,10.53,0,0,1-3,8.06A10.14,10.14,0,0,1,201.85,75Z"/><path class="cls-3" d="M123,125.18h1.73a4.41,4.41,0,0,1,.58,4.22C123.39,128.38,123.32,126.71,123,125.18Z"/><path class="cls-3" d="M179.47,234.26a3.59,3.59,0,0,1-1.35-3.45l3.75-2-.27,1.3C180.17,231.14,180,232.81,179.47,234.26Z"/><path class="cls-3" d="M140.07,288.89c-2.33.17-4.57.16-5.15-2.84l2.08-.13c0,2,4.49-.45,3,3Z"/><path class="cls-3" d="M234.16,85a4,4,0,0,1,.84.06l-1.63,2.56C232.64,86.22,233.83,85.79,234.16,85Z"/><path class="cls-3" d="M136.51,261l-1.44,0a5.94,5.94,0,0,1,1.1-1.51c.71-.54,2-1.47,2.4-.44C139.12,260.39,137.59,260.7,136.51,261Z"/><path class="cls-3" d="M109.14,213.4a5.09,5.09,0,0,1-4.83.07c.77-1.65,2.15-1.67,3.58-1.59Z"/><path class="cls-2" d="M260.16,103.27c-1.88,1.39-3.5,1.12-5.09-.58,1.65-2.46,3,1.36,4.37-.14Z"/><path class="cls-3" d="M119.91,127.17l1.73-.43c.22,1.55.75,3.11-.09,4.76C120,130.35,120.12,128.7,119.91,127.17Z"/><path class="cls-3" d="M213.78,206.72c1.06,1.72-.19,2.93-.93,4.25C211.87,209.27,212.43,207.91,213.78,206.72Z"/><path class="cls-3" d="M152.88,98c.39,1.16,1.28,2.28.36,3.64-1.2-1.08-1-2.44-1-3.72A4.52,4.52,0,0,1,152.88,98Z"/><path class="cls-2" d="M172.31,289.35c.09-1.69,1.32-2.17,2.33-3.12C175.49,288.82,174.64,289.64,172.31,289.35Z"/><path class="cls-2" d="M238,23.77c-1.94.35-3.19.39-4.27-1.1C235.33,21.83,236.42,22.58,238,23.77Z"/><path class="cls-3" d="M263.91,51.17,265.35,49l1.49-.05c-1,.66.6,4.85-2.88,2.11Z"/><path class="cls-3" d="M127.31,143l-1.26-3c1.11.06,2.31.17,2.63,1.44C128.89,142.3,128.09,142.77,127.31,143Z"/><path class="cls-3" d="M122.77,17.73l.15-2.51,2.13-.11,1.08,1.15A2.73,2.73,0,0,1,122.77,17.73Z"/><path class="cls-3" d="M234,13.31a3.87,3.87,0,0,1-.12.68c-1.42,0-3,.51-3.87-1.25A4.14,4.14,0,0,1,234,13.31Z"/><path class="cls-2" d="M198.9,83c.32,2.32-.72,3.65-3,4.09Z"/><path class="cls-3" d="M194.91,289.88c-.18,1.56-.48,3.05-2.3,3.56C192.93,292,193.36,290.56,194.91,289.88Z"/><path class="cls-3" d="M139.16,265.06c0-.95,0-1.89,0-2.84l1.66-1.38.54,3.6Z"/><path class="cls-3" d="M244.39,158.28l3.21-.69c.21.22.42.45.64.67L247,159.85C246.1,159.34,244.79,159.54,244.39,158.28Z"/><path class="cls-3" d="M122.9,145.85a5.54,5.54,0,0,1,3.3-1.7l1.19,1.45-.7,1Z"/><path class="cls-3" d="M214,140.05c-.13,1.08-.27,2.15-.4,3.23-.82-.25-1.61-.71-1.63-1.59C212,140.44,213.05,140.26,214,140.05Z"/><path class="cls-3" d="M140,282.17a.49.49,0,0,1-.1.54c-.72-.14-1.62.45-2.11-.48a.83.83,0,0,1,.25-.78C139,280.9,139.48,281.67,140,282.17Z"/><path class="cls-3" d="M119.72,148c-.88-1.76.68-1.48,1.51-1.81C121.44,147.39,120.8,147.88,119.72,148Z"/><path class="cls-2" d="M276.13,188.92c-1.77,2.37-2.81,1.1-3.91,0Z"/><path class="cls-2" d="M181.6,230.15l.27-1.3c2.25,1.1,1.79,3.13,1.74,5L182,235C181.84,233.39,181.72,231.77,181.6,230.15Z"/><path class="cls-2" d="M89.23,225.33c2.16-1,3.4-.79,4.5,0a2.51,2.51,0,0,1-.8,1.54C91.3,227.73,90.76,226.11,89.23,225.33Z"/><path class="cls-3" d="M193.78,271.79l-.1,3.35C192.19,274,192.32,272.87,193.78,271.79Z"/><path class="cls-2" d="M259.44,102.55a5.64,5.64,0,0,1,4.3-1.73l.9.76-4.48,1.69Z"/><path class="cls-3" d="M175.05,304c-.06.78.18,1.83-.93,1.94-.36,0-.81-.84-1.22-1.29Z"/><path class="cls-3" d="M182,235l1.66-1.13h-.12c0,1.06,0,2.11,0,3.16l0,0-1.6-.07Z"/><path class="cls-2" d="M251.73,75.69l-3.54,1.62-.79-.86L249,75l-.14.12,1.94-.2Z"/><path class="cls-2" d="M203.42,293l2.73-.27c0,1,0,2-1,2.49a1.38,1.38,0,0,0-.52-.44Z"/><path class="cls-2" d="M183.54,237c0-1,0-2.1,0-3.16.77,0,1.91-.3,2,.76S185.09,237,183.54,237Z"/><path class="cls-3" d="M75,78.07l.76.4-.39.34c-.1-.27-.2-.54-.31-.81Z"/><path class="cls-2" d="M236.43,281.06c-.66.6-1.61,1.73-2.25.87-.9-1.21.71-1.7,1.44-2.39Z"/><path class="cls-2" d="M208.43,54.52c.72-.5,1.61-1.84,2.26-1s-.81,1.29-1.51,1.76Z"/><path class="cls-3" d="M188.5,310.32l-.17-1.79h.35c-.06.6-.13,1.19-.19,1.79Z"/><path class="cls-3" d="M204.61,294.73a1.38,1.38,0,0,1,.52.44l-1,1.45-.69-.5Z"/><path class="cls-3" d="M111.8,201.41l1.1.29-.71.39A1.45,1.45,0,0,1,111.8,201.41Z"/><path class="cls-3" d="M112.09,203.05l-1.29,1.31C110.14,202.85,111.48,203.31,112.09,203.05Z"/><path class="cls-3" d="M151.84,281.1l1.21-.12c-.18.57,0,1.4-1,1.36C152,282.34,151.92,281.53,151.84,281.1Z"/><path class="cls-2" d="M266.84,49l-1.49.05c.32-.79.13-2.21,1.17-2.12C267.33,47,266.85,48.23,266.84,49Z"/><path class="cls-2" d="M233.37,95.87,232,97c0-.68-.41-1.48.45-1.87C232.62,95.05,233.06,95.61,233.37,95.87Z"/><path class="cls-2" d="M104.34,92.93c.51-.47.49-2,1.41-1.38s.6,2-.14,2.94Z"/><path class="cls-2" d="M246,66.15c.23-.48-.15-1.57,1.06-1Z"/><path class="cls-3" d="M110,80l-.73.76-.23-.77-.07.08h1.07Z"/><path class="cls-2" d="M136.13,14.22l-1.62,1.41-.75-.79,1.52-1.41Z"/><path class="cls-2" d="M126.13,16.26l-1.08-1.15C125.69,15.23,127,14.73,126.13,16.26Z"/><path class="cls-2" d="M90.55,76.68l-1.3-1.24c.82-.77,1.43-.19,2,.33Z"/><path class="cls-2" d="M250.89,74.13l1.78.13-.94,1.43-.91-.78A2.61,2.61,0,0,0,251,74Z"/><path class="cls-2" d="M251,16c.22.2.56.37.62.61.19.81-.44.67-.83.53-.22-.08-.39-.47-.43-.75C250.37,16.31,250.79,16.14,251,16Z"/><path class="cls-2" d="M88.59,16.93,89,18.26c-.6-.19-1.66-.31-1.7-.58C87.23,17,87.81,16.59,88.59,16.93Z"/><path class="cls-2" d="M132.06,237c-.12,0-.27-.05-.35-.13s0-.2,0-.3l.25.51Z"/><path class="cls-2" d="M202.19,235.63l-.1-.23.87-.22C203.12,236,202.53,235.62,202.19,235.63Z"/><path class="cls-3" d="M127.39,145.6c.15.26.5.59.43.77-.22.59-.7.4-1.13.19Z"/><path class="cls-2" d="M201,144.05l.49-.52c0,.12,0,.31-.11.36a1.39,1.39,0,0,1-.46.07Z"/><path class="cls-2" d="M108.13,246.9l-.73-.52c.26-.16.5-.44.77-.46s.42.3.63.46Z"/><path class="cls-2" d="M201.87,62.51c-.55.45-.81,1.49-1.87.93l.83-1.54Z"/><path class="cls-3" d="M197,257c-.77,1-1.36.57-1.9-.25Z"/><path class="cls-2" d="M205.8,58.63c-.57.4-.88,1.49-1.84.73a13.18,13.18,0,0,1,.88-1.44Z"/><path class="cls-2" d="M205.82,56.92l1.63-1.68.68,1-1.62,1.71Z"/><path class="cls-3" d="M150.28,270.73c.22.54.32.92-.4.34Z"/><path class="cls-3" d="M214.12,176.13a.64.64,0,0,1,.11.52l-.79-.14Z"/><path class="cls-3" d="M104.07,50l-.34,0,.28.07Z"/><path class="cls-2" d="M78.13,122.11l1.2,1.06-1,.52Z"/><path class="cls-2" d="M264.08,30c-1.14-.24-1.24-1-1-2A1.7,1.7,0,0,1,264.08,30Z"/><path class="cls-2" d="M263,28c-1.13.11-1.67-.62-2.11-1.5C261.81,26.75,262.69,27,263,28Z"/><path class="cls-3" d="M93,27.09l.42.77L93,28l.08.07c0-.35,0-.7,0-1.05Z"/><polygon class="cls-3" points="136 114.01 136.14 114.21 136.06 113.96 136 114.01"/><path class="cls-2" d="M120.54,112.69l-.25-.37.54-.29c0,.15.12.32.07.45S120.67,112.62,120.54,112.69Z"/><path class="cls-2" d="M167.14,291.82l.49.74H167c.09-.28.19-.55.29-.83Z"/><path class="cls-2" d="M262.11,21.91l1.56,1.66-.89.69-1.57-1.6Z"/><path class="cls-3" d="M161.92,317c-.43-.23-.87-.45-1.29-.71C161.39,316,161.72,316.38,161.92,317Z"/><path class="cls-2" d="M257.46,17.35l1.64,1.59-.73.85-1.59-1.54Z"/><path class="cls-2" d="M224.32,108.47c.33-.47.58-1.3,1.3-.46.09.1-.39.69-.6,1.06Z"/><polygon class="cls-3" points="98.47 201.31 98.11 201.41 98.48 201.39 98.47 201.31"/><path class="cls-2" d="M264.39,99.53l1.2-1.23c.65.82.16,1.42-.37,2Z"/><path class="cls-3" d="M268.24,96l.64.53-.72.2A1.08,1.08,0,0,1,268.24,96Z"/><path class="cls-2" d="M93.28,76.78l2,1-.71.83-2.06-1Z"/><path class="cls-2" d="M68.06,80A2.57,2.57,0,0,1,66.47,82C66.78,81.18,67.08,80.32,68.06,80Z"/><path class="cls-2" d="M242.89,78.11l1.89.2-1,1.43-.89-.79a1.31,1.31,0,0,0,.15-1Z"/><path class="cls-2" d="M96.57,79.61l-2-1,.71-.83,1.9,1.1Z"/><path class="cls-2" d="M248.19,77.31c-.6.57-1.22,1.07-2.06.39l1.27-1.25Z"/><path class="cls-3" d="M132.1,253.69l-.42.05.59-.4Z"/><path class="cls-2" d="M92.52,77.63l-2-.95c.25-.3.5-.6.74-.91l2,1Z"/><path class="cls-2" d="M134.51,15.63l-1.22.23.47-1Z"/><path class="cls-2" d="M90,16.12c-.15.48-.34.88-.94.5C89,15.73,89.59,16.08,90,16.12Z"/><path class="cls-2" d="M155,151l.38.66-.92,0C154.67,151.41,154.85,151.19,155,151Z"/><path class="cls-3" d="M121.28,124.86c.18-.55.53-.61,1-.33Z"/><path class="cls-3" d="M143,180l0,0Z"/><path class="cls-3" d="M87,109l0,0Z"/><path class="cls-2" d="M207.45,55.24l1-.72.75.75-1.05.93Z"/><path class="cls-3" d="M150.05,244.93l-.05,0Z"/><path class="cls-3" d="M103.74,54.35l.06-.46.46-.07Z"/><path class="cls-2" d="M198.67,65.41l-.13.28-.44-.29.29-.29Z"/><path class="cls-3" d="M104,50.08l.06,0Z"/><path class="cls-3" d="M238,50.1l-.05-.05Z"/><path class="cls-2" d="M264.85,209.45l-.36.31c-.11-.12-.3-.24-.29-.36s.21-.21.33-.32Z"/><path class="cls-2" d="M265.18,81.53c0-.43,0-.85,0-1.28l.89.64Z"/><path class="cls-2" d="M75.61,209.89c-.1-.12-.3-.24-.29-.36s.21-.21.33-.32c.11.12.3.24.3.36S75.73,209.78,75.61,209.89Z"/><path class="cls-2" d="M76.41,282.91c-.41,0-1,.23-1.19,0-.57-.6,0-1,.45-1.4Z"/><path class="cls-2" d="M200.83,61.9c.36-.51.79-.95,1.42-.5.09.07-.24.73-.38,1.11Z"/><path class="cls-2" d="M235,95.88l-1.24,0Z"/><path class="cls-2" d="M106.28,205.76s.06.11,0,.12Z"/><path class="cls-2" d="M225.1,252.79l-.68,1-.67-.6Z"/><path class="cls-3" d="M188.65,287.59l.41.05.07.41Z"/><path class="cls-2" d="M69,79l-1,1.06a2.52,2.52,0,0,1,.28-.88,4.31,4.31,0,0,0,.8-.13Z"/><path class="cls-3" d="M160.13,88.23l-1,.89Z"/><path class="cls-2" d="M78.75,290.62l.73-.37c0,.36,0,.72,0,1.08Z"/><path class="cls-2" d="M205.62,223.33c-.49-.43-1-.93-.34-1.5.17-.15.79.21,1.21.34Z"/><path class="cls-2" d="M242.54,26.44c.09.42.4,1,.24,1.21-.42.46-.77,0-1-.38Z"/><path class="cls-2" d="M235.52,291.48l1.2-.53c.07.43.13.87.2,1.3Z"/><path class="cls-3" d="M130,259.4l0,.37s0-.26,0-.28S130,259.4,130,259.4Z"/><path class="cls-2" d="M241.54,25.44l1,1-.78.83-1-1Z"/><path class="cls-2" d="M175.5,293.61l1-1.14.56.58c-.36.68-.92.68-1.55.48Z"/><path class="cls-2" d="M265.22,100.31c-.19.43-.39.85-.58,1.27l-.9-.76.65-1.29Z"/><path class="cls-2" d="M175.55,293.53l.15.27-.19-.19S175.55,293.53,175.55,293.53Z"/><path class="cls-2" d="M240.79,26.24l-1.08-.91.75-.82,1.08.93Z"/><path class="cls-2" d="M263.67,23.57c0,.41.08.81.11,1.22l-1-.53Z"/><path class="cls-3" d="M168.24,304.53l-1.12.49Z"/><path class="cls-2" d="M239.71,25.33c-.37-.24-1-.47-.52-1,.15-.17.83.1,1.26.16Z"/><path class="cls-2" d="M201.41,304.46l-.24.13s.16-.18.16-.19Z"/><path class="cls-2" d="M182,236.94l1.6.07C183,237.46,182.46,238.17,182,236.94Z"/><path class="cls-3" d="M172.08,304.67l-.41.19-.38-.2A1,1,0,0,1,172.08,304.67Z"/><path class="cls-2" d="M261.21,22.66l-.91-1,.84-.78,1,1Z"/><path class="cls-2" d="M206.51,57.91l-.71.72-1-.71,1-1Z"/><path class="cls-2" d="M260.14,19.87l1,1-.84.78c-.34-.34-.68-.67-1-1Z"/><path class="cls-2" d="M259.1,18.94l1,.93-.85.77-.92-.86Z"/><path class="cls-2" d="M256.78,18.25l-.52-1.05,1.2.15Z"/><path class="cls-5" d="M236.08,226.1c-.09-1.78-1.37-2.4-2.8-2.86l6.41-1.56.76.83C239.14,223.88,238.55,226.14,236.08,226.1Z"/><path class="cls-5" d="M108,101l-.75,1.08-.28-.33,1.11-.66Z"/><path class="cls-5" d="M95.21,155.61c-.45-.58-1.44-1.28-.59-1.89s1.26.43,1.56,1.15Z"/><path class="cls-5" d="M214.33,117.05c.12,0,.3,0,.34.06a.5.5,0,0,1,.05.41c-.2.41-.41.38-.51-.07C214.19,117.33,214.29,117.18,214.33,117.05Z"/><path class="cls-5" d="M237.16,132.26c-.58.56-1.19.92-1.93.27l1.51-.77Z"/><path class="cls-5" d="M230.1,137l-1.21.07c.23-.37.44-1,.69-1.05C230.09,135.94,230.37,136.38,230.1,137Z"/><polygon class="cls-5" points="249.06 173.23 249.07 172.92 248.97 173.15 249.06 173.23"/><path class="cls-5" d="M90.09,178a1.25,1.25,0,0,1-.41-.15c-.06-.06,0-.22,0-.34l.35.57Z"/><polygon class="cls-3" points="134.71 290.04 134.35 290.03 134.54 289.71 134.71 290.04"/><path class="cls-5" d="M239.69,221.68c.42-.52,1.12-.86,1.51-.38s-.48.79-.75,1.21Z"/><path class="cls-5" d="M100,152.05l-.25-.21.41,0Z"/><path class="cls-3" d="M247.6,157.59c.69-.23.74.15.64.67C248,158,247.81,157.81,247.6,157.59Z"/><path class="cls-5" d="M223.73,217.26l.25-.21-.18.09Z"/><path class="cls-5" d="M245.45,153.36l1.14.16-.41.69Z"/><path class="cls-3" d="M140,289l.07-.06Z"/><path class="cls-5" d="M100,222l-.51-.58,1.09-.12C100.35,221.58,100.15,221.81,100,222Z"/><path class="cls-5" d="M151.15,298.08l-.64.51c0-.38-.1-.77-.16-1.15Z"/><path class="cls-5" d="M189.56,299.36h.27l-.19.08Z"/><path class="cls-5" d="M209.27,241.48l-.1-.24.19.17Z"/><path class="cls-5" d="M251.83,30.24l-.7-1,1.13.49Z"/><path class="cls-5" d="M250.23,36.8c.25.37.79,1,.71,1.07-.69.82-1-.07-1.37-.42Z"/><path class="cls-5" d="M184,108.07c0,1.35,0,2.71.07,4.06A4.38,4.38,0,0,1,184,108.07Z"/><path class="cls-2" d="M256,50l-.54-1.23L256,50Z"/><path class="cls-5" d="M236.9,74.06c0,.82.24,1.68-.81,2.06A2.06,2.06,0,0,1,236.9,74.06Z"/><polygon class="cls-2" points="255.96 50.02 256.06 50.23 255.99 49.98 255.96 50.02"/><path class="cls-5" d="M248.43,39.73l.08.85-.7-.36C248,40.05,248.22,39.88,248.43,39.73Z"/><path class="cls-5" d="M252.26,29.73l1.66,1.37L254,31l-2.16-.8Z"/><path class="cls-5" d="M183,142l-1,1Z"/><path class="cls-5" d="M253.92,31.1,254,31Z"/><path class="cls-2" d="M94,65.11c-.68-2-1.76-3.88-1.67-6.82A15.48,15.48,0,0,1,94,65.16Z"/><path class="cls-5" d="M93.07,27.06c0,.35,0,.7,0,1.05-.58,0-1.5.47-1.54-.43C91.51,27,92.4,26.92,93.07,27.06Z"/><path class="cls-5" d="M110.06,80.08H109l.8-.86Z"/><path class="cls-5" d="M124,67c1.19.72,1,2.09,1.54,3.15C125.05,69.07,124.54,68,124,67Z"/><path class="cls-5" d="M103,73.14c-.92-.33-1-1.19-1.26-1.94C102.88,71.35,103.14,72.11,103,73.14Z"/><path class="cls-5" d="M216.61,199.3l1.37,1.23c-.84.65-1.53.28-2.2-.31C216.06,199.91,216.33,199.6,216.61,199.3Z"/><path class="cls-5" d="M184,150.16a4.07,4.07,0,0,0,0-.78c.44-.07,1-.15.93.5C184.92,150.28,184.54,150.71,184,150.16Z"/><path class="cls-5" d="M216.1,174l.29,0-.37,0Z"/><path class="cls-3" d="M221.76,173.81l.77-.32-.12,1C222.2,174.28,222,174,221.76,173.81Z"/><path class="cls-3" d="M219.17,175l1.36-.58.72.8-1.67.93C219.44,175.79,219.31,175.41,219.17,175Z"/><polygon class="cls-5" points="223.42 154.68 223.33 154.35 223.62 154.4 223.42 154.68"/><polygon class="cls-5" points="232.19 165.26 231.81 165.18 232.21 165.25 232.19 165.26"/><path class="cls-3" d="M222.41,174.52l-1.16.73-.72-.8,1.23-.64C222,174,222.2,174.28,222.41,174.52Z"/><path class="cls-5" d="M178.59,187.55c1.12-2.71,2.13-5.48,5-7.12,0,3.38-2.25,5.51-4.49,7.65C178.91,187.9,178.75,187.72,178.59,187.55Z"/><path class="cls-5" d="M176,207c-4,3.65-8.05,3.1-12.07,0Z"/><path class="cls-5" d="M158.4,181.65c1.3,1.4,2.79,2.71,2.45,5.11-2.27-.9-2.86-2.63-3-4.67Z"/><path class="cls-5" d="M179,205a4.32,4.32,0,0,1-3.05,2A3.14,3.14,0,0,1,179,205Z"/><path class="cls-5" d="M157.88,182.09l-.25-.76.77.32Z"/><path class="cls-5" d="M179.06,188.08l-.75.28.29-.81Z"/><path class="cls-2" d="M197,186l0,0Z"/><path class="cls-5" d="M164,207,163,206Z"/><path class="cls-5" d="M108.82,165.18l-.31.28a4.33,4.33,0,0,1-.27-.71c0-.08.17-.2.27-.3Z"/><polygon class="cls-5" points="116.73 155.28 117 155.3 116.78 155.34 116.73 155.28"/><polygon class="cls-5" points="126.07 174.97 125.9 174.77 125.95 175.06 126.07 174.97"/><path class="cls-3" d="M114.9,181.1v-.41l.42,0Z"/><path class="cls-2" d="M69.06,79.07l0,0Z"/><path class="cls-5" d="M136.69,164.2a1.76,1.76,0,0,1,.06-.4c0-.06.15-.08.22-.12l-.37.57Z"/><path class="cls-5" d="M253.57,276.52c-.14.08-.36.24-.39.22a3.36,3.36,0,0,1-.32-.51,1,1,0,0,1,.47-.05C253.44,276.21,253.49,276.4,253.57,276.52Z"/><path class="cls-5" d="M256.28,275.35c.34-.42.69-.84,1-1.25,0,0-.1-.06-.09-.06l-1,1.29Z"/><path class="cls-5" d="M256.25,275.33l-.56-.19.59.21Z"/><path class="cls-5" d="M97,275.93c-2.08,2.37-4.63,2.62-8.3,1.47l8.4-1.38Z"/><path class="cls-5" d="M97.5,274.47c.56-.45,1.12-.8,1.79-.17l-.07-.09-1.18.73C97.87,274.78,97.69,274.62,97.5,274.47Z"/><path class="cls-5" d="M97.12,276l.39-1.55.53.47-1,1Z"/><path class="cls-5" d="M166.26,322.18l-.42,0,.18-.66c.12.07.32.12.36.22S166.3,322,166.26,322.18Z"/><path class="cls-5" d="M243,78a1.31,1.31,0,0,1-.15,1l-1.14-.6Z"/><path class="cls-5" d="M251,74a2.61,2.61,0,0,1-.2.91l-1.94.2C249.25,74.06,250.09,73.94,251,74Z"/><path class="cls-5" d="M105.11,12.14H98c2.11-1.94,4.59-.89,6.94-.89A3.12,3.12,0,0,1,105.11,12.14Z"/></g></g></svg>