<?xml version="1.0" encoding="utf-8"?>
<!-- Generator: Adobe Illustrator 23.0.2, SVG Export Plug-In . SVG Version: 6.00 Build 0)  -->
<svg version="1.1" id="Ebene_1" xmlns="http://www.w3.org/2000/svg" xmlns:xlink="http://www.w3.org/1999/xlink" x="0px" y="0px"
	 viewBox="0 0 595.3 599.9" style="enable-background:new 0 0 595.3 599.9;" xml:space="preserve">
<style type="text/css">
	.st0{fill:#FFFFFF;}
</style>
<path class="st0" d="M298.6,16.1c158.3,0,286.6,128.4,286.1,287.1c-0.6,161.6-133.3,288.3-291.9,285.3
	C140.6,585.6,12.1,461.7,12.2,300.9C12.3,144.1,141,16.1,298.6,16.1z M569.8,302.4C569.1,152.1,449.5,33.6,303.2,31.1
	C151.8,28.6,28,149.5,27.3,300.9c-0.7,152.5,121.8,270,266.2,272.6C443.3,576.1,569.1,456.2,569.8,302.4z"/>
<path class="st0" d="M453.7,142.3c2.7,2.7,5.7,5.7,8.4,8.4c-105,105-209.9,209.9-314.9,314.9c-2.5-2.7-5.5-5.9-8.1-8.8
	C243.5,352.4,348.4,247.5,453.7,142.3z"/>
<path class="st0" d="M198.3,201.6c-4.7,17.6-9.5,35.2-14.2,52.8c-2.3,8.7-2.3,8.7-11.2,8.7c-2.1,0-4.3,0-6.8,0
	c-6.9-30-13.8-59.8-20.8-89.9c5.7,0,10.9,0,16.4,0c4.4,21,8.7,42,13.1,62.9c0.3,0,0.6,0,0.9,0c5.4-21,10.7-42,16.1-63
	c4.7,0,9,0,13.9,0c5.2,20.8,10.4,41.6,15.7,62.4c0.4,0,0.8,0,1.2,0c4.2-20.6,8.4-41.2,12.7-62.1c5.2,0,10.5,0,16.4,0
	c-6.9,29.9-13.8,59.7-20.7,89.6c-5.4,0-10.3,0-15.7,0c-5.4-20.5-10.7-40.9-16.1-61.4C198.9,201.5,198.6,201.5,198.3,201.6z"/>
<path class="st0" d="M355.2,434.1c0-30.1,0-59.9,0-90.7c12.5,0.5,24.9,0,36.9,1.9c14.9,2.4,24.4,12.4,28.5,26.9
	c3,10.4,3.1,21.1,0.6,31.6c-4.3,18.2-17.5,29.3-36.2,30.1C375.3,434.4,365.5,434.1,355.2,434.1z M371.8,420.9c3.2,0,6.2,0,9.1,0
	c13.3-0.1,21.9-6.8,24-19.9c1.1-7,1.4-14.3,0.6-21.3c-2-17.1-12.6-25.2-33.8-21.4C371.8,378.9,371.8,399.7,371.8,420.9z"/>
</svg>
